<?xml version="1.0" encoding="utf-8"?>
<!-- Generator: Adobe Illustrator 22.1.0, SVG Export Plug-In . SVG Version: 6.00 Build 0)  -->
<svg version="1.1" id="Layer_1" xmlns="http://www.w3.org/2000/svg" xmlns:xlink="http://www.w3.org/1999/xlink" x="0px" y="0px"
	 viewBox="0 0 519.3 520" style="enable-background:new 0 0 519.3 520;" xml:space="preserve">
<style type="text/css">
	.st0{fill:url(#SVGID_1_);}
	.st1{fill:url(#SVGID_2_);}
	.st2{fill:#FFFFFF;}
	.st3{fill:url(#SVGID_3_);}
	.st4{fill:none;stroke:#787B85;stroke-width:5;stroke-miterlimit:10;stroke-dasharray:15,15;}
	.st5{opacity:0.1;fill:#2D2F4F;}
	.st6{fill:url(#SVGID_4_);}
	.st7{fill:url(#SVGID_5_);}
	.st8{fill:url(#SVGID_6_);}
	.st9{fill:url(#SVGID_7_);}
	.st10{fill:url(#SVGID_8_);}
	.st11{fill:url(#SVGID_9_);}
	.st12{opacity:0.3;}
	.st13{fill:url(#SVGID_10_);}
	.st14{fill:url(#SVGID_11_);}
	.st15{fill:url(#SVGID_12_);}
	.st16{fill:url(#SVGID_13_);}
	.st17{fill:url(#SVGID_14_);}
	.st18{fill:url(#SVGID_15_);}
	.st19{fill:url(#SVGID_16_);}
	.st20{fill:url(#SVGID_17_);}
	.st21{fill:url(#SVGID_18_);}
	.st22{fill:url(#SVGID_19_);}
	.st23{fill:url(#SVGID_20_);}
	.st24{fill:url(#SVGID_21_);}
	.st25{fill:url(#SVGID_22_);}
	.st26{opacity:0.49;}
	.st27{fill:#F2B827;}
	.st28{fill:url(#SVGID_23_);}
	.st29{fill:url(#SVGID_24_);}
	.st30{fill:url(#SVGID_25_);}
	.st31{fill:url(#SVGID_26_);}
	.st32{fill:url(#SVGID_27_);}
	.st33{fill:url(#SVGID_28_);}
	.st34{fill:url(#SVGID_29_);}
	.st35{fill:url(#SVGID_30_);}
	.st36{fill:url(#SVGID_31_);}
	.st37{fill:url(#SVGID_32_);}
	.st38{fill:url(#SVGID_33_);}
	.st39{fill:url(#SVGID_34_);}
	.st40{fill:url(#SVGID_35_);}
	.st41{fill:url(#SVGID_36_);}
	.st42{fill:url(#SVGID_37_);}
	.st43{fill:url(#SVGID_38_);}
	.st44{fill:url(#SVGID_39_);}
	.st45{fill:url(#SVGID_40_);}
	.st46{fill:url(#SVGID_41_);}
	.st47{fill:url(#SVGID_42_);}
	.st48{fill:url(#SVGID_43_);}
	.st49{fill:url(#SVGID_44_);}
	.st50{fill:url(#SVGID_45_);}
	.st51{fill:url(#SVGID_46_);}
	.st52{fill:url(#SVGID_47_);}
	.st53{fill:url(#SVGID_48_);}
	.st54{fill:url(#SVGID_49_);}
	.st55{fill:url(#SVGID_50_);}
	.st56{fill:url(#SVGID_51_);}
	.st57{fill:url(#SVGID_52_);}
	.st58{fill:url(#SVGID_53_);}
	.st59{fill:url(#SVGID_54_);}
	.st60{fill:url(#SVGID_55_);}
	.st61{fill:url(#SVGID_56_);}
	.st62{fill:url(#SVGID_57_);}
	.st63{fill:url(#SVGID_58_);}
	.st64{fill:url(#SVGID_59_);}
	.st65{fill:url(#SVGID_60_);}
	.st66{fill:url(#SVGID_61_);}
	.st67{fill:url(#SVGID_62_);}
	.st68{fill:url(#SVGID_63_);}
	.st69{fill:url(#SVGID_64_);}
	.st70{fill:url(#SVGID_65_);}
	.st71{fill:url(#SVGID_66_);}
	.st72{fill:url(#SVGID_67_);}
	.st73{fill:url(#SVGID_68_);}
	.st74{fill:url(#SVGID_69_);}
	.st75{fill:url(#SVGID_70_);}
	.st76{fill:url(#SVGID_71_);}
	.st77{fill:url(#SVGID_72_);}
	.st78{fill:url(#SVGID_73_);}
	.st79{fill:url(#SVGID_74_);}
	.st80{fill:url(#SVGID_75_);}
	.st81{fill:url(#SVGID_76_);}
	.st82{fill:url(#SVGID_77_);}
	.st83{fill:url(#SVGID_78_);}
	.st84{fill:url(#SVGID_79_);}
	.st85{fill:url(#SVGID_80_);}
	.st86{fill:url(#SVGID_81_);}
	.st87{fill:url(#SVGID_82_);}
	.st88{fill:url(#SVGID_83_);}
	.st89{fill:url(#SVGID_84_);}
	.st90{fill:url(#SVGID_85_);}
	.st91{fill:url(#SVGID_86_);}
	.st92{fill:url(#SVGID_87_);}
	.st93{fill:url(#SVGID_88_);}
	.st94{fill:url(#SVGID_89_);}
	.st95{fill:url(#SVGID_90_);}
	.st96{fill:url(#SVGID_91_);}
	.st97{fill:url(#SVGID_92_);}
	.st98{fill:url(#SVGID_93_);}
	.st99{fill:url(#SVGID_94_);}
	.st100{fill:url(#SVGID_95_);}
	.st101{fill:url(#SVGID_96_);}
	.st102{fill:url(#SVGID_97_);}
	.st103{fill:url(#SVGID_98_);}
	.st104{fill:url(#SVGID_99_);}
	.st105{fill:url(#SVGID_100_);}
	.st106{opacity:0.22;fill:#FFFFFF;}
	.st107{fill:url(#SVGID_101_);}
	.st108{fill:url(#SVGID_102_);}
	.st109{fill:url(#SVGID_103_);}
	.st110{fill:url(#SVGID_104_);}
	.st111{fill:url(#SVGID_105_);}
	.st112{fill:url(#SVGID_106_);}
	.st113{fill:url(#SVGID_107_);}
	.st114{fill:url(#SVGID_108_);}
	.st115{fill:url(#SVGID_109_);}
	.st116{fill:url(#SVGID_110_);}
	.st117{fill:url(#SVGID_111_);}
	.st118{fill:url(#SVGID_112_);}
	.st119{fill:url(#SVGID_113_);}
	.st120{fill:url(#SVGID_114_);}
	.st121{fill:url(#SVGID_115_);}
	.st122{fill:url(#SVGID_116_);}
	.st123{fill:url(#SVGID_117_);}
	.st124{fill:url(#SVGID_118_);}
	.st125{fill:url(#SVGID_119_);}
	.st126{fill:url(#SVGID_120_);}
	.st127{fill:url(#SVGID_121_);}
	.st128{fill:url(#SVGID_122_);}
	.st129{fill:url(#SVGID_123_);}
	.st130{fill:url(#SVGID_124_);}
	.st131{fill:url(#SVGID_125_);}
	.st132{fill:url(#SVGID_126_);}
	.st133{fill:url(#SVGID_127_);}
	.st134{fill:url(#SVGID_128_);}
	.st135{fill:url(#SVGID_129_);}
	.st136{fill:url(#SVGID_130_);}
	.st137{fill:url(#SVGID_131_);}
	.st138{fill:url(#SVGID_132_);}
	.st139{fill:url(#SVGID_133_);}
	.st140{fill:url(#SVGID_134_);}
	.st141{fill:url(#SVGID_135_);}
	.st142{fill:url(#SVGID_136_);}
	.st143{fill:url(#SVGID_137_);}
	.st144{fill:url(#SVGID_138_);}
	.st145{fill:url(#SVGID_139_);}
	.st146{fill:#20233A;}
	.st147{fill:#2D2F4F;}
	.st148{fill:#444866;}
	.st149{fill:url(#SVGID_140_);}
	.st150{fill:url(#SVGID_141_);}
	.st151{fill:#EFEFEF;}
	.st152{fill:url(#SVGID_142_);}
	.st153{fill:url(#SVGID_143_);}
	.st154{opacity:0.16;fill:#2D2F4F;}
	.st155{fill:#D3782D;}
	.st156{fill:url(#SVGID_144_);}
	.st157{fill:#B75E1C;}
	.st158{fill:#F7C684;}
	.st159{fill:#FFFEFF;}
	.st160{fill:#CECAC8;}
	.st161{fill:url(#SVGID_145_);}
	.st162{fill:url(#SVGID_146_);}
	.st163{fill:url(#SVGID_147_);}
	.st164{fill:url(#SVGID_148_);}
	.st165{fill:url(#SVGID_149_);}
	.st166{fill:url(#SVGID_150_);}
	.st167{fill:url(#SVGID_151_);}
	.st168{fill:url(#SVGID_152_);}
	.st169{fill:url(#SVGID_153_);}
	.st170{fill:url(#SVGID_154_);}
	.st171{fill:url(#SVGID_155_);}
	.st172{fill:url(#SVGID_156_);}
	.st173{fill:url(#SVGID_157_);}
	.st174{fill:url(#SVGID_158_);}
	.st175{fill:url(#SVGID_159_);}
	.st176{fill:url(#SVGID_160_);}
	.st177{fill:url(#SVGID_161_);}
	.st178{fill:url(#SVGID_162_);}
</style>
<g>
	<g>
		<linearGradient id="SVGID_1_" gradientUnits="userSpaceOnUse" x1="228.0389" y1="81.5498" x2="255.2254" y2="131.3095">
			<stop  offset="0" style="stop-color:#2D2F4F"/>
			<stop  offset="1" style="stop-color:#16192B"/>
		</linearGradient>
		<path class="st0" d="M214.8,113.5c-1.6-0.9-2.7-2.7-2.7-4.6l-3.2-47.7c0-0.5,3.6-1.4,3.8-1.4c0.1,0,0.2,0,0.3,0.1L262,88
			c2.2,1.3,3.5,3.6,3.5,6.1v43.8c0,2.1-4.9,4.9-6.7,3.9L214.8,113.5z"/>
		<linearGradient id="SVGID_2_" gradientUnits="userSpaceOnUse" x1="208.8334" y1="101.3702" x2="262.2543" y2="101.3702">
			<stop  offset="0" style="stop-color:#38ACA8"/>
			<stop  offset="1" style="stop-color:#60637B"/>
		</linearGradient>
		<path class="st1" d="M211.5,114.6c-1.6-0.9-2.7-2.7-2.7-4.6V61.6c0-0.5,0.4-0.6,0.6-0.6c0.1,0,0.2,0,0.3,0.1l49,28.1
			c2.2,1.3,3.5,3.6,3.5,6.1v43.8c0,2.1-2.3,3.4-4.1,2.4L211.5,114.6z"/>
		<path class="st2" d="M258.9,95.2V138l-45.8-26.3c-0.6-0.4-1-1-1-1.7V66.3L257.1,92C258.2,92.7,258.9,93.9,258.9,95.2z"/>
		<linearGradient id="SVGID_3_" gradientUnits="userSpaceOnUse" x1="212.1812" y1="90.939" x2="258.9156" y2="90.939">
			<stop  offset="0" style="stop-color:#38ACA8"/>
			<stop  offset="1" style="stop-color:#60637B"/>
		</linearGradient>
		<path class="st3" d="M258.9,95.2v20.4l-13.2-20.8l-13.8,13.3L221,92.6l-8.8,8.7V66.3L257.1,92C258.2,92.7,258.9,93.9,258.9,95.2z"
			/>
		<ellipse transform="matrix(0.7983 -0.6022 0.6022 0.7983 -5.5579 151.043)" class="st2" cx="222.8" cy="83.8" rx="3.7" ry="6.6"/>
	</g>
	<line class="st4" x1="409.8" y1="314.2" x2="409.8" y2="258.6"/>
	<g>
		<path class="st5" d="M17,375.8l242.6,138.5c6.3,3.6,14,3.7,20.3,0l185.9-106.7c6-3.5,6-12.1,0-15.6L224.2,254
			c-5.7-3.3-12.6-3.3-18.3,0L17.1,362.3C11.9,365.3,11.9,372.8,17,375.8z"/>
		<linearGradient id="SVGID_4_" gradientUnits="userSpaceOnUse" x1="129.8127" y1="372.0084" x2="514.9282" y2="373.355">
			<stop  offset="0" style="stop-color:#0B0B3A"/>
			<stop  offset="1" style="stop-color:#1F309E"/>
		</linearGradient>
		<path class="st6" d="M499.6,370.5h-21.3L253.4,242.3c-5.7-3.3-12.6-3.3-18.3,0L61.4,341.9h-19v16.3l0.1,0.1
			c0.3,2.3,1.5,4.4,3.8,5.8l242.6,138.5c6.3,3.6,14,3.7,20.3,0l185.9-106.7c3.4-1.9,4.8-5.5,4.4-9l0.1-0.1V370.5z"/>
		<linearGradient id="SVGID_5_" gradientUnits="userSpaceOnUse" x1="242.0072" y1="370.9025" x2="346.3608" y2="371.5758">
			<stop  offset="0" style="stop-color:#C3C3CD"/>
			<stop  offset="0.449" style="stop-color:#FFFFFF"/>
			<stop  offset="0.5704" style="stop-color:#9B9DA4"/>
			<stop  offset="1" style="stop-color:#787B85"/>
		</linearGradient>
		<path class="st7" d="M499.6,369.1h-21.3L253.4,240.8c-5.7-3.3-12.6-3.3-18.3,0L61.4,340.5h-19v16.3l0.1,0.1
			c0.3,2.3,1.5,4.4,3.8,5.8l242.6,138.5c6.3,3.6,14,3.7,20.3,0l185.9-106.7c3.4-1.9,4.8-5.5,4.4-9l0.1-0.1V369.1z"/>
		<linearGradient id="SVGID_6_" gradientUnits="userSpaceOnUse" x1="458.1887" y1="407.4484" x2="26.0428" y2="285.5437">
			<stop  offset="0" style="stop-color:#BABBBB"/>
			<stop  offset="1" style="stop-color:#F4F4F4"/>
		</linearGradient>
		<path class="st8" d="M46.3,346.3l242.6,138.5c6.3,3.6,14,3.7,20.3,0l185.9-106.7c6-3.5,6-12.1,0-15.6l-241.7-138
			c-5.7-3.3-12.6-3.3-18.3,0L46.3,332.8C41.2,335.8,41.1,343.3,46.3,346.3z"/>
		<path class="st2" d="M495.1,376.1L309.2,482.8c-6.3,3.6-14,3.6-20.3,0L46.3,344.3c-2.2-1.3-3.5-3.4-3.7-5.7
			c-0.4,2.9,0.8,6,3.7,7.7l242.6,138.5c6.3,3.6,14,3.7,20.3,0l185.9-106.7c3.4-1.9,4.8-5.5,4.4-8.8
			C499.2,372,497.8,374.6,495.1,376.1z"/>
	</g>
	<g>
		<g>
			<linearGradient id="SVGID_7_" gradientUnits="userSpaceOnUse" x1="400.4124" y1="86.2711" x2="421.8342" y2="150.537">
				<stop  offset="0" style="stop-color:#C3C3CD"/>
				<stop  offset="0.449" style="stop-color:#FFFFFF"/>
				<stop  offset="0.5704" style="stop-color:#9B9DA4"/>
				<stop  offset="1" style="stop-color:#787B85"/>
			</linearGradient>
			<path class="st9" d="M397.3,195.1l44.7,29.5c1.7,1,7.8-3.3,7.8-5.3V111.7c0-3.3-1.8-6.3-4.6-8l-45.1-25.9
				c-2.2-1.2-8.9,1.4-8.9,3.9l2.3,106.8C393.5,191.3,394.9,193.8,397.3,195.1z"/>
			<linearGradient id="SVGID_8_" gradientUnits="userSpaceOnUse" x1="411.649" y1="98.028" x2="421.433" y2="188.8441">
				<stop  offset="0" style="stop-color:#2D2F4F"/>
				<stop  offset="1" style="stop-color:#16192B"/>
			</linearGradient>
			<path class="st10" d="M394,197.3l47,27c1.7,1,3.7-0.2,3.7-2.2V114.5c0-3.3-1.8-6.3-4.6-8l-45.1-25.9c-2.2-1.2-4.9,0.3-4.9,2.8
				v107.2C390.2,193.4,391.7,195.9,394,197.3z"/>
			<linearGradient id="SVGID_9_" gradientUnits="userSpaceOnUse" x1="422.9721" y1="196.9333" x2="412.9812" y2="115.5443">
				<stop  offset="0" style="stop-color:#38ACA8"/>
				<stop  offset="1" style="stop-color:#60637B"/>
			</linearGradient>
			<path class="st11" d="M395.4,194.9c-1.5-0.9-2.4-2.5-2.4-4.2V83.5c0-0.4,0.4-0.6,0.6-0.6c0.1,0,0.2,0,0.3,0.1l45.1,25.9
				c2,1.2,3.3,3.3,3.3,5.6v107.3L395.4,194.9z"/>
			<path class="st2" d="M440.2,106.5l-45.1-25.9c-0.9-0.5-1.9-0.5-2.7-0.2c0.8-0.2,1.7-0.1,2.5,0.3l45.1,25.9c2.8,1.6,4.6,4.7,4.6,8
				v107.6c0,1.1-0.7,2-1.6,2.3c1-0.3,1.9-1.2,1.9-2.4V114.5C444.8,111.2,443.1,108.2,440.2,106.5z"/>
			<g class="st12">
				<linearGradient id="SVGID_10_" gradientUnits="userSpaceOnUse" x1="426.5729" y1="190.57" x2="405.5689" y2="116.4133">
					<stop  offset="0" style="stop-color:#80BDFF"/>
					<stop  offset="1" style="stop-color:#D6EAFF"/>
				</linearGradient>
				<path class="st13" d="M395.8,113.7c-0.5-0.3-0.9-0.9-0.9-1.5V96.4c0-0.2,0.1-0.2,0.2-0.2c0,0,0.1,0,0.1,0l16,9.2
					c0.7,0.4,1.2,1.2,1.2,2v14.3c0,0.7-0.7,1.1-1.3,0.8L395.8,113.7z"/>
				<linearGradient id="SVGID_11_" gradientUnits="userSpaceOnUse" x1="446.072" y1="185.0473" x2="425.068" y2="110.8905">
					<stop  offset="0" style="stop-color:#80BDFF"/>
					<stop  offset="1" style="stop-color:#D6EAFF"/>
				</linearGradient>
				<path class="st14" d="M420.6,126.9c-0.5-0.3-0.9-0.9-0.9-1.5v-15.8c0-0.2,0.1-0.2,0.2-0.2c0,0,0.1,0,0.1,0l16,9.2
					c0.7,0.4,1.2,1.2,1.2,2v14.3c0,0.7-0.7,1.1-1.3,0.8L420.6,126.9z"/>
				<linearGradient id="SVGID_12_" gradientUnits="userSpaceOnUse" x1="420.5726" y1="192.2695" x2="399.5686" y2="118.1127">
					<stop  offset="0" style="stop-color:#80BDFF"/>
					<stop  offset="1" style="stop-color:#D6EAFF"/>
				</linearGradient>
				<path class="st15" d="M395.8,136.6c-0.5-0.3-0.9-0.9-0.9-1.5v-15.8c0-0.2,0.1-0.2,0.2-0.2c0,0,0.1,0,0.1,0l16,9.2
					c0.7,0.4,1.2,1.2,1.2,2v14.3c0,0.7-0.7,1.1-1.3,0.8L395.8,136.6z"/>
				<linearGradient id="SVGID_13_" gradientUnits="userSpaceOnUse" x1="440.0716" y1="186.7467" x2="419.0677" y2="112.5899">
					<stop  offset="0" style="stop-color:#80BDFF"/>
					<stop  offset="1" style="stop-color:#D6EAFF"/>
				</linearGradient>
				<path class="st16" d="M420.6,149.8c-0.5-0.3-0.9-0.9-0.9-1.5v-15.8c0-0.2,0.1-0.2,0.2-0.2c0,0,0.1,0,0.1,0l16,9.2
					c0.7,0.4,1.2,1.2,1.2,2v14.3c0,0.7-0.7,1.1-1.3,0.8L420.6,149.8z"/>
				<linearGradient id="SVGID_14_" gradientUnits="userSpaceOnUse" x1="414.5723" y1="193.9691" x2="393.5683" y2="119.8123">
					<stop  offset="0" style="stop-color:#80BDFF"/>
					<stop  offset="1" style="stop-color:#D6EAFF"/>
				</linearGradient>
				<path class="st17" d="M395.8,159.5c-0.5-0.3-0.9-0.9-0.9-1.5v-15.8c0-0.2,0.1-0.2,0.2-0.2c0,0,0.1,0,0.1,0l16,9.2
					c0.7,0.4,1.2,1.2,1.2,2v14.3c0,0.7-0.7,1.1-1.3,0.8L395.8,159.5z"/>
				<linearGradient id="SVGID_15_" gradientUnits="userSpaceOnUse" x1="434.0713" y1="188.4462" x2="413.0673" y2="114.2894">
					<stop  offset="0" style="stop-color:#80BDFF"/>
					<stop  offset="1" style="stop-color:#D6EAFF"/>
				</linearGradient>
				<path class="st18" d="M420.6,172.7c-0.5-0.3-0.9-0.9-0.9-1.5v-15.8c0-0.2,0.1-0.2,0.2-0.2c0,0,0.1,0,0.1,0l16,9.2
					c0.7,0.4,1.2,1.2,1.2,2v14.3c0,0.7-0.7,1.1-1.3,0.8L420.6,172.7z"/>
				<linearGradient id="SVGID_16_" gradientUnits="userSpaceOnUse" x1="408.5719" y1="195.6686" x2="387.568" y2="121.5118">
					<stop  offset="0" style="stop-color:#80BDFF"/>
					<stop  offset="1" style="stop-color:#D6EAFF"/>
				</linearGradient>
				<path class="st19" d="M395.8,182.4c-0.5-0.3-0.9-0.9-0.9-1.5v-15.8c0-0.2,0.1-0.2,0.2-0.2c0,0,0.1,0,0.1,0l16,9.2
					c0.7,0.4,1.2,1.2,1.2,2v14.3c0,0.7-0.7,1.1-1.3,0.8L395.8,182.4z"/>
				<linearGradient id="SVGID_17_" gradientUnits="userSpaceOnUse" x1="428.071" y1="190.1458" x2="407.067" y2="115.989">
					<stop  offset="0" style="stop-color:#80BDFF"/>
					<stop  offset="1" style="stop-color:#D6EAFF"/>
				</linearGradient>
				<path class="st20" d="M420.6,195.6c-0.5-0.3-0.9-0.9-0.9-1.5v-15.8c0-0.2,0.1-0.2,0.2-0.2c0,0,0.1,0,0.1,0l16,9.2
					c0.7,0.4,1.2,1.2,1.2,2v14.3c0,0.7-0.7,1.1-1.3,0.8L420.6,195.6z"/>
			</g>
		</g>
		<g>
			<linearGradient id="SVGID_18_" gradientUnits="userSpaceOnUse" x1="389.7135" y1="113.5036" x2="417.1592" y2="163.7377">
				<stop  offset="0" style="stop-color:#80BDFF"/>
				<stop  offset="1" style="stop-color:#D6EAFF"/>
			</linearGradient>
			<path class="st21" d="M376.3,145.8c-1.7-1-2.7-2.7-2.7-4.6L370.4,93c0-0.5,3.6-1.4,3.8-1.4c0.1,0,0.2,0,0.3,0.1L424,120
				c2.2,1.3,3.6,3.6,3.6,6.2v44.2c0,2.1-4.9,5-6.8,3.9L376.3,145.8z"/>
			<linearGradient id="SVGID_19_" gradientUnits="userSpaceOnUse" x1="400.4445" y1="160.4443" x2="394.3843" y2="111.0762">
				<stop  offset="0" style="stop-color:#86E2D0"/>
				<stop  offset="1" style="stop-color:#309E98"/>
			</linearGradient>
			<path class="st22" d="M373,146.9c-1.7-1-2.7-2.7-2.7-4.6v-49c0-0.5,0.4-0.6,0.6-0.6c0.1,0,0.2,0,0.3,0.1l49.4,28.4
				c2.2,1.3,3.6,3.6,3.6,6.2v44.2c0,2.1-2.3,3.4-4.1,2.4L373,146.9z"/>
			<g>
				<path class="st2" d="M411.4,133.1c-3.2-6.6-8.5-12.9-14.7-16.5c-9.7-5.7-17.6-2.4-17.6,7.3c0,9.7,7.9,22.2,17.6,27.9
					c4.9,2.8,9.3,3.4,12.4,2.1c3.2-1.3,5.1-4.6,5.1-9.4C414.3,140.9,413.2,136.9,411.4,133.1z M406.6,149.8c-2.5,1-6,0.6-9.8-1.7
					c-7.7-4.5-13.9-14.4-13.9-22.1c0-7.7,6.2-10.3,13.9-5.8c4.9,2.8,9.1,7.8,11.6,13c1.5,3,2.3,6.2,2.3,9
					C410.6,146.2,409.1,148.7,406.6,149.8z"/>
			</g>
		</g>
		<path class="st4" d="M447.5,164.9l12.3,8c5.1,3.3,11.8-0.3,11.8-6.4v-62.9c0-6-3.2-11.6-8.4-14.7L327.9,9.4
			c-6.7-3.9-15.2,0.9-15.2,8.7v156.5"/>
		<g>
			<g>
				<linearGradient id="SVGID_20_" gradientUnits="userSpaceOnUse" x1="353.73" y1="295.5867" x2="300.5598" y2="194.6307">
					<stop  offset="0" style="stop-color:#C3C3CD"/>
					<stop  offset="0.449" style="stop-color:#FFFFFF"/>
					<stop  offset="0.5704" style="stop-color:#9B9DA4"/>
					<stop  offset="1" style="stop-color:#787B85"/>
				</linearGradient>
				<path class="st23" d="M272.2,255.1l98.1,60.3c2.4,1.4,7.9-3.3,7.9-6v-81.8c0-6.6-3.5-12.7-9.3-16l-96.4-55.1
					c-3.2-1.8-10.3,0.3-10.3,4l3.1,82.6C265.2,248.1,267.9,252.7,272.2,255.1z"/>
				<linearGradient id="SVGID_21_" gradientUnits="userSpaceOnUse" x1="261.3871" y1="236.8893" x2="374.3364" y2="236.8893">
					<stop  offset="0" style="stop-color:#2D2F4F"/>
					<stop  offset="1" style="stop-color:#16192B"/>
				</linearGradient>
				<path class="st24" d="M268.4,257.5L368.9,315c2.4,1.4,5.4-0.4,5.4-3.1V230c0-6.6-3.5-12.7-9.3-16l-96.4-55.1
					c-3.2-1.8-7.2,0.5-7.2,4.2v82.3C261.4,250.5,264.1,255.1,268.4,257.5z"/>
				<linearGradient id="SVGID_22_" gradientUnits="userSpaceOnUse" x1="266.4318" y1="236.8895" x2="369.2926" y2="236.8895">
					<stop  offset="0" style="stop-color:#38ACA8"/>
					<stop  offset="1" style="stop-color:#60637B"/>
				</linearGradient>
				<path class="st25" d="M368.3,309.4c-0.2,0-0.3,0-0.5-0.1l-95.9-54.8c-3.4-1.9-5.4-5.5-5.4-9.4v-78.5c0-1.3,1.1-2.2,2.2-2.2
					c0.4,0,0.7,0.1,1.1,0.3l92,52.6c4.7,2.7,7.6,7.7,7.6,13.1v78c0,0.3-0.1,0.5-0.3,0.7C368.8,309.3,368.5,309.4,368.3,309.4
					L368.3,309.4z"/>
				<g>
					<path class="st2" d="M357.8,249c-1.5-3-3.4-6-5.6-8.8c-3.1-3.9-6.8-7.3-10.9-9.6c-10.9-6.4-19.7-2.7-19.7,8.2
						c0,10.8,8.8,24.8,19.7,31.2c4.4,2.6,8.5,3.5,11.8,3c0.8-0.1,1.4-0.3,2.1-0.6c3.6-1.5,5.7-5.1,5.7-10.5
						C361,257.7,359.8,253.3,357.8,249z"/>
				</g>
				<g class="st26">
					<path class="st2" d="M272.6,200.3c-1.3-0.7-2.1-2.1-2.1-3.6v-1.6c0-0.4,0.3-0.5,0.5-0.5c0.1,0,0.2,0,0.2,0.1l37.9,21.8
						c1.7,1,2.7,2.8,2.7,4.7v-2.1c0,1.6-1.8,2.6-3.2,1.8L272.6,200.3z"/>
					<path class="st2" d="M272.6,211.7c-1.3-0.7-2.1-2.1-2.1-3.6v-1.6c0-0.4,0.3-0.5,0.5-0.5c0.1,0,0.2,0,0.2,0.1l37.9,21.8
						c1.7,1,2.7,2.8,2.7,4.7v-2.1c0,1.6-1.8,2.6-3.2,1.8L272.6,211.7z"/>
					<path class="st2" d="M272.6,223c-1.3-0.7-2.1-2.1-2.1-3.6v-1.6c0-0.4,0.3-0.5,0.5-0.5c0.1,0,0.2,0,0.2,0.1l37.9,21.8
						c1.7,1,2.7,2.8,2.7,4.7v-2.1c0,1.6-1.8,2.6-3.2,1.8L272.6,223z"/>
					<path class="st2" d="M272.6,234.4c-1.3-0.7-2.1-2.1-2.1-3.6v-1.6c0-0.4,0.3-0.5,0.5-0.5c0.1,0,0.2,0,0.2,0.1l20.4,12.1
						c1.7,1,2.7,2.8,2.7,4.7v-2.1c0,1.6-1.8,2.6-3.2,1.8L272.6,234.4z"/>
				</g>
				<path class="st27" d="M361,261.8c0,5.4-2.2,9.1-5.7,10.5c-0.7,0.3-1.3,0.5-2.1,0.6l-13.8-23.2l12.8-9.5c2.2,2.7,4.1,5.7,5.6,8.8
					C359.8,253.3,361,257.7,361,261.8z"/>
			</g>
			<g>
				<linearGradient id="SVGID_23_" gradientUnits="userSpaceOnUse" x1="247.1416" y1="308.998" x2="361.0438" y2="317.9156">
					<stop  offset="0" style="stop-color:#2D2F4F"/>
					<stop  offset="1" style="stop-color:#16192B"/>
				</linearGradient>
				<path class="st28" d="M266.7,260.9l102,55c3,1.8,1.5,9.2-1.5,10.9l-61.9,35c-4.2,2.4-9.3,2.3-13.5-0.1l-97.3-56.2
					c-3.4-2-4.4-10.7-1-12.7l62.1-32C259.1,259,263.3,259,266.7,260.9z"/>
				<linearGradient id="SVGID_24_" gradientUnits="userSpaceOnUse" x1="247.1416" y1="308.778" x2="361.0438" y2="317.6956">
					<stop  offset="0" style="stop-color:#C3C3CD"/>
					<stop  offset="0.449" style="stop-color:#FFFFFF"/>
					<stop  offset="0.5704" style="stop-color:#9B9DA4"/>
					<stop  offset="1" style="stop-color:#787B85"/>
				</linearGradient>
				<path class="st29" d="M266.7,260.7l102,55c3,1.8,1.5,9.2-1.5,10.9l-61.9,35c-4.2,2.4-9.3,2.3-13.5-0.1l-97.3-56.2
					c-3.4-2-4.4-10.7-1-12.7l62.1-32C259.1,258.7,263.3,258.7,266.7,260.7z"/>
				<linearGradient id="SVGID_25_" gradientUnits="userSpaceOnUse" x1="365.803" y1="342.3018" x2="198.7344" y2="273.4338">
					<stop  offset="0" style="stop-color:#BABBBB"/>
					<stop  offset="1" style="stop-color:#F4F4F4"/>
				</linearGradient>
				<path class="st30" d="M266.9,256.2l100.6,58.1c3,1.8,3,6.1,0,7.9l-61.9,35c-4.2,2.4-9.3,2.3-13.5-0.1L194.8,301
					c-3.4-2-3.4-6.9,0-8.9l61.1-35.8C259.3,254.3,263.5,254.3,266.9,256.2z"/>
			</g>
			<linearGradient id="SVGID_26_" gradientUnits="userSpaceOnUse" x1="261.6317" y1="256.8017" x2="325.228" y2="344.1683">
				<stop  offset="0" style="stop-color:#2D2F4F"/>
				<stop  offset="1" style="stop-color:#16192B"/>
			</linearGradient>
			<path class="st31" d="M227.2,286.5l90.3,53c2.1,1.2,4.7,1.2,6.9,0l35.3-20.5c1.7-1,1.7-3.5,0-4.5l-92.6-53.4
				c-1.5-0.9-3.5-0.9-5,0l-34.8,20.7C225.5,282.9,225.5,285.5,227.2,286.5z"/>
			<g>
				<linearGradient id="SVGID_27_" gradientUnits="userSpaceOnUse" x1="211.0707" y1="193.7941" x2="271.3927" y2="276.6626">
					<stop  offset="0" style="stop-color:#80BDFF"/>
					<stop  offset="1" style="stop-color:#D6EAFF"/>
				</linearGradient>
				<path class="st32" d="M264.7,269.5c0.1,0.1,0.3,0.1,0.4,0l3.6-2.1c0.1-0.1,0.1-0.2,0-0.3l-4.7-2.7c-0.1-0.1-0.2-0.1-0.4,0
					l-3.7,2.1c-0.1,0.1-0.1,0.2,0,0.3L264.7,269.5z"/>
				<linearGradient id="SVGID_28_" gradientUnits="userSpaceOnUse" x1="218.183" y1="197.9117" x2="278.505" y2="280.7802">
					<stop  offset="0" style="stop-color:#80BDFF"/>
					<stop  offset="1" style="stop-color:#D6EAFF"/>
				</linearGradient>
				<path class="st33" d="M267,270.9l4.7,2.7c0.1,0.1,0.3,0.1,0.4,0l3.6-2.1c0.1-0.1,0.1-0.2,0-0.3l-4.7-2.7c-0.1-0.1-0.2-0.1-0.4,0
					l-3.7,2.1C266.9,270.7,266.9,270.8,267,270.9z"/>
				<linearGradient id="SVGID_29_" gradientUnits="userSpaceOnUse" x1="225.2952" y1="202.0292" x2="285.6175" y2="284.898">
					<stop  offset="0" style="stop-color:#80BDFF"/>
					<stop  offset="1" style="stop-color:#D6EAFF"/>
				</linearGradient>
				<path class="st34" d="M274.2,275l4.7,2.7c0.1,0.1,0.3,0.1,0.4,0l3.6-2.1c0.1-0.1,0.1-0.2,0-0.3l-4.7-2.7c-0.1-0.1-0.2-0.1-0.4,0
					l-3.7,2.1C274.1,274.8,274.1,274.9,274.2,275z"/>
				<linearGradient id="SVGID_30_" gradientUnits="userSpaceOnUse" x1="232.4066" y1="206.1456" x2="292.7299" y2="289.0158">
					<stop  offset="0" style="stop-color:#80BDFF"/>
					<stop  offset="1" style="stop-color:#D6EAFF"/>
				</linearGradient>
				<path class="st35" d="M281.3,279.1l4.7,2.7c0.1,0.1,0.3,0.1,0.4,0l3.6-2.1c0.1-0.1,0.1-0.2,0-0.3l-4.7-2.7
					c-0.1-0.1-0.2-0.1-0.4,0l-3.7,2.1C281.2,278.9,281.2,279.1,281.3,279.1z"/>
				<linearGradient id="SVGID_31_" gradientUnits="userSpaceOnUse" x1="239.5199" y1="210.2645" x2="299.8422" y2="293.1333">
					<stop  offset="0" style="stop-color:#80BDFF"/>
					<stop  offset="1" style="stop-color:#D6EAFF"/>
				</linearGradient>
				<path class="st36" d="M288.4,283.2l4.7,2.7c0.1,0.1,0.3,0.1,0.4,0l3.6-2.1c0.1-0.1,0.1-0.2,0-0.3l-4.7-2.7
					c-0.1-0.1-0.2-0.1-0.4,0l-3.7,2.1C288.3,283,288.3,283.2,288.4,283.2z"/>
				<linearGradient id="SVGID_32_" gradientUnits="userSpaceOnUse" x1="246.6322" y1="214.3823" x2="306.9545" y2="297.251">
					<stop  offset="0" style="stop-color:#80BDFF"/>
					<stop  offset="1" style="stop-color:#D6EAFF"/>
				</linearGradient>
				<path class="st37" d="M295.5,287.4l4.7,2.7c0.1,0.1,0.3,0.1,0.4,0l3.6-2.1c0.1-0.1,0.1-0.2,0-0.3l-4.7-2.7
					c-0.1-0.1-0.2-0.1-0.4,0l-3.7,2.1C295.4,287.2,295.4,287.3,295.5,287.4z"/>
				<linearGradient id="SVGID_33_" gradientUnits="userSpaceOnUse" x1="253.7448" y1="218.5001" x2="314.0668" y2="301.3687">
					<stop  offset="0" style="stop-color:#80BDFF"/>
					<stop  offset="1" style="stop-color:#D6EAFF"/>
				</linearGradient>
				<path class="st38" d="M302.6,291.5l4.7,2.7c0.1,0.1,0.3,0.1,0.4,0l3.6-2.1c0.1-0.1,0.1-0.2,0-0.3l-4.7-2.7
					c-0.1-0.1-0.2-0.1-0.4,0l-3.7,2.1C302.5,291.3,302.5,291.4,302.6,291.5z"/>
				<linearGradient id="SVGID_34_" gradientUnits="userSpaceOnUse" x1="260.8568" y1="222.6175" x2="321.1792" y2="305.4865">
					<stop  offset="0" style="stop-color:#80BDFF"/>
					<stop  offset="1" style="stop-color:#D6EAFF"/>
				</linearGradient>
				<path class="st39" d="M309.7,295.6l4.7,2.7c0.1,0.1,0.3,0.1,0.4,0l3.6-2.1c0.1-0.1,0.1-0.2,0-0.3l-4.7-2.7
					c-0.1-0.1-0.2-0.1-0.4,0l-3.7,2.1C309.6,295.4,309.6,295.5,309.7,295.6z"/>
				<linearGradient id="SVGID_35_" gradientUnits="userSpaceOnUse" x1="267.9694" y1="226.7355" x2="328.2915" y2="309.604">
					<stop  offset="0" style="stop-color:#80BDFF"/>
					<stop  offset="1" style="stop-color:#D6EAFF"/>
				</linearGradient>
				<path class="st40" d="M316.8,299.7l4.7,2.7c0.1,0.1,0.3,0.1,0.4,0l3.6-2.1c0.1-0.1,0.1-0.2,0-0.3l-4.7-2.7
					c-0.1-0.1-0.2-0.1-0.4,0l-3.7,2.1C316.7,299.5,316.7,299.7,316.8,299.7z"/>
				<linearGradient id="SVGID_36_" gradientUnits="userSpaceOnUse" x1="275.0817" y1="230.853" x2="335.4039" y2="313.7218">
					<stop  offset="0" style="stop-color:#80BDFF"/>
					<stop  offset="1" style="stop-color:#D6EAFF"/>
				</linearGradient>
				<path class="st41" d="M323.9,303.8l4.7,2.7c0.1,0.1,0.3,0.1,0.4,0l3.6-2.1c0.1-0.1,0.1-0.2,0-0.3l-4.7-2.7
					c-0.1-0.1-0.2-0.1-0.4,0l-3.7,2.1C323.8,303.6,323.8,303.8,323.9,303.8z"/>
				<linearGradient id="SVGID_37_" gradientUnits="userSpaceOnUse" x1="282.1941" y1="234.9708" x2="342.5162" y2="317.8394">
					<stop  offset="0" style="stop-color:#80BDFF"/>
					<stop  offset="1" style="stop-color:#D6EAFF"/>
				</linearGradient>
				<path class="st42" d="M331.1,307.9l4.7,2.7c0.1,0.1,0.3,0.1,0.4,0l3.6-2.1c0.1-0.1,0.1-0.2,0-0.3l-4.7-2.7
					c-0.1-0.1-0.2-0.1-0.4,0l-3.7,2.1C331,307.7,331,307.9,331.1,307.9z"/>
				<linearGradient id="SVGID_38_" gradientUnits="userSpaceOnUse" x1="289.3065" y1="239.0885" x2="349.6286" y2="321.9571">
					<stop  offset="0" style="stop-color:#80BDFF"/>
					<stop  offset="1" style="stop-color:#D6EAFF"/>
				</linearGradient>
				<path class="st43" d="M338.2,312.1l4.7,2.7c0.1,0.1,0.3,0.1,0.4,0l3.6-2.1c0.1-0.1,0.1-0.2,0-0.3l-4.7-2.7
					c-0.1-0.1-0.2-0.1-0.4,0l-3.7,2.1C338.1,311.9,338.1,312,338.2,312.1z"/>
				<linearGradient id="SVGID_39_" gradientUnits="userSpaceOnUse" x1="296.4188" y1="243.2062" x2="356.7409" y2="326.0747">
					<stop  offset="0" style="stop-color:#80BDFF"/>
					<stop  offset="1" style="stop-color:#D6EAFF"/>
				</linearGradient>
				<path class="st44" d="M354,316.5l-4.7-2.7c-0.1-0.1-0.2-0.1-0.4,0l-3.7,2.1c-0.1,0.1-0.1,0.2,0,0.3l4.7,2.7
					c0.1,0.1,0.3,0.1,0.4,0l3.6-2.1C354.1,316.7,354.1,316.6,354,316.5z"/>
				<linearGradient id="SVGID_40_" gradientUnits="userSpaceOnUse" x1="140.6933" y1="105.446" x2="278.3589" y2="294.5667">
					<stop  offset="0" style="stop-color:#80BDFF"/>
					<stop  offset="1" style="stop-color:#D6EAFF"/>
				</linearGradient>
				<path class="st45" d="M261.4,274.2C261.4,274.3,261.4,274.3,261.4,274.2l2.7,1.6l0.5,0.3c0,0,0,0,0,0l1.6,0.9
					c0.1,0.1,0.3,0.1,0.4,0l3.6-2.1c0.1-0.1,0.1-0.2,0-0.3l-2-1.1l-9.8-5.7c-0.1-0.1-0.2-0.1-0.4,0l-3.7,2.1c-0.1,0.1-0.1,0.2,0,0.3
					L261.4,274.2z"/>
				<linearGradient id="SVGID_41_" gradientUnits="userSpaceOnUse" x1="219.6337" y1="205.4122" x2="279.956" y2="288.2811">
					<stop  offset="0" style="stop-color:#80BDFF"/>
					<stop  offset="1" style="stop-color:#D6EAFF"/>
				</linearGradient>
				<path class="st46" d="M272.5,276c-0.1-0.1-0.2-0.1-0.4,0l-3.7,2.1c-0.1,0.1-0.1,0.2,0,0.3l4.7,2.7c0.1,0.1,0.3,0.1,0.4,0
					l3.6-2.1c0.1-0.1,0.1-0.2,0-0.3L272.5,276z"/>
				<linearGradient id="SVGID_42_" gradientUnits="userSpaceOnUse" x1="226.7461" y1="209.53" x2="287.0683" y2="292.3987">
					<stop  offset="0" style="stop-color:#80BDFF"/>
					<stop  offset="1" style="stop-color:#D6EAFF"/>
				</linearGradient>
				<path class="st47" d="M279.6,280.1c-0.1-0.1-0.2-0.1-0.4,0l-3.7,2.1c-0.1,0.1-0.1,0.2,0,0.3l4.7,2.7c0.1,0.1,0.3,0.1,0.4,0
					l3.6-2.1c0.1-0.1,0.1-0.2,0-0.3L279.6,280.1z"/>
				<linearGradient id="SVGID_43_" gradientUnits="userSpaceOnUse" x1="233.8586" y1="213.6478" x2="294.1807" y2="296.5164">
					<stop  offset="0" style="stop-color:#80BDFF"/>
					<stop  offset="1" style="stop-color:#D6EAFF"/>
				</linearGradient>
				<path class="st48" d="M286.8,284.3c-0.1-0.1-0.2-0.1-0.4,0l-3.7,2.1c-0.1,0.1-0.1,0.2,0,0.3l4.7,2.7c0.1,0.1,0.3,0.1,0.4,0
					l3.6-2.1c0.1-0.1,0.1-0.2,0-0.3L286.8,284.3z"/>
				<linearGradient id="SVGID_44_" gradientUnits="userSpaceOnUse" x1="240.971" y1="217.7655" x2="301.293" y2="300.634">
					<stop  offset="0" style="stop-color:#80BDFF"/>
					<stop  offset="1" style="stop-color:#D6EAFF"/>
				</linearGradient>
				<path class="st49" d="M293.9,288.4c-0.1-0.1-0.2-0.1-0.4,0l-3.7,2.1c-0.1,0.1-0.1,0.2,0,0.3l4.7,2.7c0.1,0.1,0.3,0.1,0.4,0
					l3.6-2.1c0.1-0.1,0.1-0.2,0-0.3L293.9,288.4z"/>
				<linearGradient id="SVGID_45_" gradientUnits="userSpaceOnUse" x1="248.0832" y1="221.883" x2="308.4054" y2="304.7517">
					<stop  offset="0" style="stop-color:#80BDFF"/>
					<stop  offset="1" style="stop-color:#D6EAFF"/>
				</linearGradient>
				<path class="st50" d="M301,292.5c-0.1-0.1-0.2-0.1-0.4,0l-3.7,2.1c-0.1,0.1-0.1,0.2,0,0.3l4.7,2.7c0.1,0.1,0.3,0.1,0.4,0
					l3.6-2.1c0.1-0.1,0.1-0.2,0-0.3L301,292.5z"/>
				<linearGradient id="SVGID_46_" gradientUnits="userSpaceOnUse" x1="255.1957" y1="226.0008" x2="315.5177" y2="308.8694">
					<stop  offset="0" style="stop-color:#80BDFF"/>
					<stop  offset="1" style="stop-color:#D6EAFF"/>
				</linearGradient>
				<path class="st51" d="M308.1,296.6c-0.1-0.1-0.2-0.1-0.4,0l-3.7,2.1c-0.1,0.1-0.1,0.2,0,0.3l4.7,2.7c0.1,0.1,0.3,0.1,0.4,0
					l3.6-2.1c0.1-0.1,0.1-0.2,0-0.3L308.1,296.6z"/>
				<linearGradient id="SVGID_47_" gradientUnits="userSpaceOnUse" x1="262.3079" y1="230.1184" x2="322.6301" y2="312.9871">
					<stop  offset="0" style="stop-color:#80BDFF"/>
					<stop  offset="1" style="stop-color:#D6EAFF"/>
				</linearGradient>
				<path class="st52" d="M315.2,300.7c-0.1-0.1-0.2-0.1-0.4,0l-3.7,2.1c-0.1,0.1-0.1,0.2,0,0.3l4.7,2.7c0.1,0.1,0.3,0.1,0.4,0
					l3.6-2.1c0.1-0.1,0.1-0.2,0-0.3L315.2,300.7z"/>
				<linearGradient id="SVGID_48_" gradientUnits="userSpaceOnUse" x1="269.4193" y1="234.2348" x2="329.7426" y2="317.1049">
					<stop  offset="0" style="stop-color:#80BDFF"/>
					<stop  offset="1" style="stop-color:#D6EAFF"/>
				</linearGradient>
				<path class="st53" d="M322.3,304.8c-0.1-0.1-0.2-0.1-0.4,0l-3.7,2.1c-0.1,0.1-0.1,0.2,0,0.3l4.7,2.7c0.1,0.1,0.3,0.1,0.4,0
					l3.6-2.1c0.1-0.1,0.1-0.2,0-0.3L322.3,304.8z"/>
				<linearGradient id="SVGID_49_" gradientUnits="userSpaceOnUse" x1="276.5324" y1="238.3536" x2="336.8548" y2="321.2225">
					<stop  offset="0" style="stop-color:#80BDFF"/>
					<stop  offset="1" style="stop-color:#D6EAFF"/>
				</linearGradient>
				<path class="st54" d="M325.4,311.3l4.7,2.7c0.1,0.1,0.3,0.1,0.4,0l3.6-2.1c0.1-0.1,0.1-0.2,0-0.3l-4.7-2.7
					c-0.1-0.1-0.2-0.1-0.4,0l-3.7,2.1C325.3,311.1,325.3,311.3,325.4,311.3z"/>
				<linearGradient id="SVGID_50_" gradientUnits="userSpaceOnUse" x1="283.6451" y1="242.4716" x2="343.9671" y2="325.3402">
					<stop  offset="0" style="stop-color:#80BDFF"/>
					<stop  offset="1" style="stop-color:#D6EAFF"/>
				</linearGradient>
				<path class="st55" d="M337.6,318.1l3.6-2.1c0.1-0.1,0.1-0.2,0-0.3l-4.7-2.7c-0.1-0.1-0.2-0.1-0.4,0l-3.7,2.1
					c-0.1,0.1-0.1,0.2,0,0.3l4.7,2.7C337.4,318.2,337.5,318.2,337.6,318.1z"/>
				<linearGradient id="SVGID_51_" gradientUnits="userSpaceOnUse" x1="290.7573" y1="246.589" x2="351.0795" y2="329.4579">
					<stop  offset="0" style="stop-color:#80BDFF"/>
					<stop  offset="1" style="stop-color:#D6EAFF"/>
				</linearGradient>
				<path class="st56" d="M343.7,317.2c-0.1-0.1-0.2-0.1-0.4,0l-3.7,2.1c-0.1,0.1-0.1,0.2,0,0.3l4.7,2.7c0.1,0.1,0.3,0.1,0.4,0
					l3.6-2.1c0.1-0.1,0.1-0.2,0-0.3L343.7,317.2z"/>
				<linearGradient id="SVGID_52_" gradientUnits="userSpaceOnUse" x1="199.7476" y1="200.5599" x2="260.0698" y2="283.4287">
					<stop  offset="0" style="stop-color:#80BDFF"/>
					<stop  offset="1" style="stop-color:#D6EAFF"/>
				</linearGradient>
				<path class="st57" d="M253.3,276.2c0.1,0.1,0.3,0.1,0.4,0l3.6-2.1c0.1-0.1,0.1-0.2,0-0.3l-4.7-2.7c-0.1-0.1-0.2-0.1-0.4,0
					l-3.7,2.1c-0.1,0.1-0.1,0.2,0,0.3L253.3,276.2z"/>
				<linearGradient id="SVGID_53_" gradientUnits="userSpaceOnUse" x1="206.8602" y1="204.6778" x2="267.1822" y2="287.5464">
					<stop  offset="0" style="stop-color:#80BDFF"/>
					<stop  offset="1" style="stop-color:#D6EAFF"/>
				</linearGradient>
				<path class="st58" d="M259.8,275.3c-0.1-0.1-0.2-0.1-0.4,0l-3.7,2.1c-0.1,0.1-0.1,0.2,0,0.3l4.7,2.7c0.1,0.1,0.3,0.1,0.4,0
					l3.6-2.1c0.1-0.1,0.1-0.2,0-0.3L259.8,275.3z"/>
				<linearGradient id="SVGID_54_" gradientUnits="userSpaceOnUse" x1="213.9714" y1="208.794" x2="274.2947" y2="291.6642">
					<stop  offset="0" style="stop-color:#80BDFF"/>
					<stop  offset="1" style="stop-color:#D6EAFF"/>
				</linearGradient>
				<path class="st59" d="M266.5,279.4l-3.7,2.1c-0.1,0.1-0.1,0.2,0,0.3l4.7,2.7c0.1,0.1,0.3,0.1,0.4,0l3.6-2.1
					c0.1-0.1,0.1-0.2,0-0.3l-4.7-2.7C266.8,279.3,266.6,279.3,266.5,279.4z"/>
				<linearGradient id="SVGID_55_" gradientUnits="userSpaceOnUse" x1="221.0845" y1="212.9127" x2="281.407" y2="295.7818">
					<stop  offset="0" style="stop-color:#80BDFF"/>
					<stop  offset="1" style="stop-color:#D6EAFF"/>
				</linearGradient>
				<path class="st60" d="M274,283.5c-0.1-0.1-0.2-0.1-0.4,0l-3.7,2.1c-0.1,0.1-0.1,0.2,0,0.3l4.7,2.7c0.1,0.1,0.3,0.1,0.4,0
					l3.6-2.1c0.1-0.1,0.1-0.2,0-0.3L274,283.5z"/>
				<linearGradient id="SVGID_56_" gradientUnits="userSpaceOnUse" x1="228.1959" y1="217.0292" x2="288.5193" y2="299.8996">
					<stop  offset="0" style="stop-color:#80BDFF"/>
					<stop  offset="1" style="stop-color:#D6EAFF"/>
				</linearGradient>
				<path class="st61" d="M281.1,287.6c-0.1-0.1-0.2-0.1-0.4,0l-3.7,2.1c-0.1,0.1-0.1,0.2,0,0.3l4.7,2.7c0.1,0.1,0.3,0.1,0.4,0
					l3.6-2.1c0.1-0.1,0.1-0.2,0-0.3L281.1,287.6z"/>
				<linearGradient id="SVGID_57_" gradientUnits="userSpaceOnUse" x1="235.3094" y1="221.1484" x2="295.6316" y2="304.0171">
					<stop  offset="0" style="stop-color:#80BDFF"/>
					<stop  offset="1" style="stop-color:#D6EAFF"/>
				</linearGradient>
				<path class="st62" d="M288.2,291.8c-0.1-0.1-0.2-0.1-0.4,0l-3.7,2.1c-0.1,0.1-0.1,0.2,0,0.3l4.7,2.7c0.1,0.1,0.3,0.1,0.4,0
					l3.6-2.1c0.1-0.1,0.1-0.2,0-0.3L288.2,291.8z"/>
				<linearGradient id="SVGID_58_" gradientUnits="userSpaceOnUse" x1="242.4219" y1="225.2664" x2="302.744" y2="308.1349">
					<stop  offset="0" style="stop-color:#80BDFF"/>
					<stop  offset="1" style="stop-color:#D6EAFF"/>
				</linearGradient>
				<path class="st63" d="M295.3,295.9c-0.1-0.1-0.2-0.1-0.4,0l-3.7,2.1c-0.1,0.1-0.1,0.2,0,0.3l4.7,2.7c0.1,0.1,0.3,0.1,0.4,0
					l3.6-2.1c0.1-0.1,0.1-0.2,0-0.3L295.3,295.9z"/>
				<linearGradient id="SVGID_59_" gradientUnits="userSpaceOnUse" x1="249.5342" y1="229.3839" x2="309.8563" y2="312.2524">
					<stop  offset="0" style="stop-color:#80BDFF"/>
					<stop  offset="1" style="stop-color:#D6EAFF"/>
				</linearGradient>
				<path class="st64" d="M302.4,300c-0.1-0.1-0.2-0.1-0.4,0l-3.7,2.1c-0.1,0.1-0.1,0.2,0,0.3l4.7,2.7c0.1,0.1,0.3,0.1,0.4,0
					l3.6-2.1c0.1-0.1,0.1-0.2,0-0.3L302.4,300z"/>
				<linearGradient id="SVGID_60_" gradientUnits="userSpaceOnUse" x1="256.6467" y1="233.5017" x2="316.9687" y2="316.3702">
					<stop  offset="0" style="stop-color:#80BDFF"/>
					<stop  offset="1" style="stop-color:#D6EAFF"/>
				</linearGradient>
				<path class="st65" d="M305.5,306.5l4.7,2.7c0.1,0.1,0.3,0.1,0.4,0l3.6-2.1c0.1-0.1,0.1-0.2,0-0.3l-4.7-2.7
					c-0.1-0.1-0.2-0.1-0.4,0l-3.7,2.1C305.4,306.3,305.4,306.4,305.5,306.5z"/>
				<linearGradient id="SVGID_61_" gradientUnits="userSpaceOnUse" x1="263.7589" y1="237.6193" x2="324.081" y2="320.4878">
					<stop  offset="0" style="stop-color:#80BDFF"/>
					<stop  offset="1" style="stop-color:#D6EAFF"/>
				</linearGradient>
				<path class="st66" d="M317.7,313.3l3.6-2.1c0.1-0.1,0.1-0.2,0-0.3l-4.7-2.7c-0.1-0.1-0.2-0.1-0.4,0l-3.7,2.1
					c-0.1,0.1-0.1,0.2,0,0.3l4.7,2.7C317.5,313.4,317.6,313.4,317.7,313.3z"/>
				<linearGradient id="SVGID_62_" gradientUnits="userSpaceOnUse" x1="270.8714" y1="241.737" x2="331.1934" y2="324.6055">
					<stop  offset="0" style="stop-color:#80BDFF"/>
					<stop  offset="1" style="stop-color:#D6EAFF"/>
				</linearGradient>
				<path class="st67" d="M324.9,317.4l3.6-2.1c0.1-0.1,0.1-0.2,0-0.3l-4.7-2.7c-0.1-0.1-0.2-0.1-0.4,0l-3.7,2.1
					c-0.1,0.1-0.1,0.2,0,0.3l4.7,2.7C324.6,317.5,324.7,317.5,324.9,317.4z"/>
				<linearGradient id="SVGID_63_" gradientUnits="userSpaceOnUse" x1="277.9835" y1="245.8545" x2="338.3056" y2="328.7231">
					<stop  offset="0" style="stop-color:#80BDFF"/>
					<stop  offset="1" style="stop-color:#D6EAFF"/>
				</linearGradient>
				<path class="st68" d="M331.6,321.5c0.1,0.1,0.3,0.1,0.4,0l3.6-2.1c0.1-0.1,0.1-0.2,0-0.3l-4.7-2.7c-0.1-0.1-0.2-0.1-0.4,0
					l-3.7,2.1c-0.1,0.1-0.1,0.2,0,0.3L331.6,321.5z"/>
				<linearGradient id="SVGID_64_" gradientUnits="userSpaceOnUse" x1="285.096" y1="249.9723" x2="345.4181" y2="332.8409">
					<stop  offset="0" style="stop-color:#80BDFF"/>
					<stop  offset="1" style="stop-color:#D6EAFF"/>
				</linearGradient>
				<path class="st69" d="M338,320.6c-0.1-0.1-0.2-0.1-0.4,0l-3.7,2.1c-0.1,0.1-0.1,0.2,0,0.3l4.7,2.7c0.1,0.1,0.3,0.1,0.4,0
					l3.6-2.1c0.1-0.1,0.1-0.2,0-0.3L338,320.6z"/>
				<linearGradient id="SVGID_65_" gradientUnits="userSpaceOnUse" x1="194.0862" y1="203.943" x2="254.4084" y2="286.8117">
					<stop  offset="0" style="stop-color:#80BDFF"/>
					<stop  offset="1" style="stop-color:#D6EAFF"/>
				</linearGradient>
				<path class="st70" d="M247.7,279.6c0.1,0.1,0.3,0.1,0.4,0l3.6-2.1c0.1-0.1,0.1-0.2,0-0.3l-4.7-2.7c-0.1-0.1-0.2-0.1-0.4,0
					l-3.7,2.1c-0.1,0.1-0.1,0.2,0,0.3L247.7,279.6z"/>
				<linearGradient id="SVGID_66_" gradientUnits="userSpaceOnUse" x1="201.1986" y1="208.0607" x2="261.5208" y2="290.9295">
					<stop  offset="0" style="stop-color:#80BDFF"/>
					<stop  offset="1" style="stop-color:#D6EAFF"/>
				</linearGradient>
				<path class="st71" d="M253.7,278.7l-3.7,2.1c-0.1,0.1-0.1,0.2,0,0.3l4.7,2.7c0.1,0.1,0.3,0.1,0.4,0l3.6-2.1
					c0.1-0.1,0.1-0.2,0-0.3l-4.7-2.7C254,278.6,253.9,278.6,253.7,278.7z"/>
				<linearGradient id="SVGID_67_" gradientUnits="userSpaceOnUse" x1="208.311" y1="212.1786" x2="268.6331" y2="295.0471">
					<stop  offset="0" style="stop-color:#80BDFF"/>
					<stop  offset="1" style="stop-color:#D6EAFF"/>
				</linearGradient>
				<path class="st72" d="M265.9,285.5l-4.7-2.7c-0.1-0.1-0.2-0.1-0.4,0l-3.7,2.1c-0.1,0.1-0.1,0.2,0,0.3l4.7,2.7
					c0.1,0.1,0.3,0.1,0.4,0l3.6-2.1C266,285.7,266,285.5,265.9,285.5z"/>
				<linearGradient id="SVGID_68_" gradientUnits="userSpaceOnUse" x1="215.4233" y1="216.2961" x2="275.7455" y2="299.1648">
					<stop  offset="0" style="stop-color:#80BDFF"/>
					<stop  offset="1" style="stop-color:#D6EAFF"/>
				</linearGradient>
				<path class="st73" d="M269,292c0.1,0.1,0.3,0.1,0.4,0l3.6-2.1c0.1-0.1,0.1-0.2,0-0.3l-4.7-2.7c-0.1-0.1-0.2-0.1-0.4,0l-3.7,2.1
					c-0.1,0.1-0.1,0.2,0,0.3L269,292z"/>
				<linearGradient id="SVGID_69_" gradientUnits="userSpaceOnUse" x1="222.5358" y1="220.4139" x2="282.8578" y2="303.2825">
					<stop  offset="0" style="stop-color:#80BDFF"/>
					<stop  offset="1" style="stop-color:#D6EAFF"/>
				</linearGradient>
				<path class="st74" d="M276.1,296.1c0.1,0.1,0.3,0.1,0.4,0l3.6-2.1c0.1-0.1,0.1-0.2,0-0.3l-4.7-2.7c-0.1-0.1-0.2-0.1-0.4,0
					l-3.7,2.1c-0.1,0.1-0.1,0.2,0,0.3L276.1,296.1z"/>
				<linearGradient id="SVGID_70_" gradientUnits="userSpaceOnUse" x1="229.6479" y1="224.5313" x2="289.9702" y2="307.4002">
					<stop  offset="0" style="stop-color:#80BDFF"/>
					<stop  offset="1" style="stop-color:#D6EAFF"/>
				</linearGradient>
				<path class="st75" d="M283.2,300.2c0.1,0.1,0.3,0.1,0.4,0l3.6-2.1c0.1-0.1,0.1-0.2,0-0.3l-4.7-2.7c-0.1-0.1-0.2-0.1-0.4,0
					l-3.7,2.1c-0.1,0.1-0.1,0.2,0,0.3L283.2,300.2z"/>
				<linearGradient id="SVGID_71_" gradientUnits="userSpaceOnUse" x1="236.7604" y1="228.6492" x2="297.0825" y2="311.5178">
					<stop  offset="0" style="stop-color:#80BDFF"/>
					<stop  offset="1" style="stop-color:#D6EAFF"/>
				</linearGradient>
				<path class="st76" d="M290.4,304.3c0.1,0.1,0.3,0.1,0.4,0l3.6-2.1c0.1-0.1,0.1-0.2,0-0.3l-4.7-2.7c-0.1-0.1-0.2-0.1-0.4,0
					l-3.7,2.1c-0.1,0.1-0.1,0.2,0,0.3L290.4,304.3z"/>
				<linearGradient id="SVGID_72_" gradientUnits="userSpaceOnUse" x1="243.8725" y1="232.7667" x2="304.1949" y2="315.6356">
					<stop  offset="0" style="stop-color:#80BDFF"/>
					<stop  offset="1" style="stop-color:#D6EAFF"/>
				</linearGradient>
				<path class="st77" d="M297.5,308.4c0.1,0.1,0.3,0.1,0.4,0l3.6-2.1c0.1-0.1,0.1-0.2,0-0.3l-4.7-2.7c-0.1-0.1-0.2-0.1-0.4,0
					l-3.7,2.1c-0.1,0.1-0.1,0.2,0,0.3L297.5,308.4z"/>
				<linearGradient id="SVGID_73_" gradientUnits="userSpaceOnUse" x1="250.9852" y1="236.8847" x2="311.3072" y2="319.7531">
					<stop  offset="0" style="stop-color:#80BDFF"/>
					<stop  offset="1" style="stop-color:#D6EAFF"/>
				</linearGradient>
				<path class="st78" d="M304.6,312.6c0.1,0.1,0.3,0.1,0.4,0l3.6-2.1c0.1-0.1,0.1-0.2,0-0.3l-4.7-2.7c-0.1-0.1-0.2-0.1-0.4,0
					l-3.7,2.1c-0.1,0.1-0.1,0.2,0,0.3L304.6,312.6z"/>
				<linearGradient id="SVGID_74_" gradientUnits="userSpaceOnUse" x1="258.0972" y1="241.002" x2="318.4196" y2="323.871">
					<stop  offset="0" style="stop-color:#80BDFF"/>
					<stop  offset="1" style="stop-color:#D6EAFF"/>
				</linearGradient>
				<path class="st79" d="M311.7,316.7c0.1,0.1,0.3,0.1,0.4,0l3.6-2.1c0.1-0.1,0.1-0.2,0-0.3l-4.7-2.7c-0.1-0.1-0.2-0.1-0.4,0
					l-3.7,2.1c-0.1,0.1-0.1,0.2,0,0.3L311.7,316.7z"/>
				<linearGradient id="SVGID_75_" gradientUnits="userSpaceOnUse" x1="265.2089" y1="245.1187" x2="325.532" y2="327.9887">
					<stop  offset="0" style="stop-color:#80BDFF"/>
					<stop  offset="1" style="stop-color:#D6EAFF"/>
				</linearGradient>
				<path class="st80" d="M322.8,318.4l-4.7-2.7c-0.1-0.1-0.2-0.1-0.4,0l-3.7,2.1c-0.1,0.1-0.1,0.2,0,0.3l4.7,2.7
					c0.1,0.1,0.3,0.1,0.4,0l3.6-2.1C322.9,318.7,322.9,318.5,322.8,318.4z"/>
				<linearGradient id="SVGID_76_" gradientUnits="userSpaceOnUse" x1="207.6055" y1="157.5054" x2="345.2721" y2="346.6274">
					<stop  offset="0" style="stop-color:#80BDFF"/>
					<stop  offset="1" style="stop-color:#D6EAFF"/>
				</linearGradient>
				<path class="st81" d="M330,322.6c0,0,0-0.1-0.1-0.1l-4.7-2.7c-0.1-0.1-0.2-0.1-0.4,0l-3.7,2.1c-0.1,0.1-0.1,0.2,0,0.3l2.1,1.2
					c0,0,0,0.1,0.1,0.1l9.7,5.5c0.1,0.1,0.3,0.1,0.4,0l3.6-2.1c0.1-0.1,0.1-0.2,0-0.3L330,322.6z"/>
				<linearGradient id="SVGID_77_" gradientUnits="userSpaceOnUse" x1="188.4249" y1="207.3262" x2="248.747" y2="290.1948">
					<stop  offset="0" style="stop-color:#80BDFF"/>
					<stop  offset="1" style="stop-color:#D6EAFF"/>
				</linearGradient>
				<path class="st82" d="M242,283c0.1,0.1,0.3,0.1,0.4,0l3.6-2.1c0.1-0.1,0.1-0.2,0-0.3l-4.7-2.7c-0.1-0.1-0.2-0.1-0.4,0l-3.7,2.1
					c-0.1,0.1-0.1,0.2,0,0.3L242,283z"/>
				<linearGradient id="SVGID_78_" gradientUnits="userSpaceOnUse" x1="195.5371" y1="211.4437" x2="255.8593" y2="294.3125">
					<stop  offset="0" style="stop-color:#80BDFF"/>
					<stop  offset="1" style="stop-color:#D6EAFF"/>
				</linearGradient>
				<path class="st83" d="M248.1,282l-3.7,2.1c-0.1,0.1-0.1,0.2,0,0.3l4.7,2.7c0.1,0.1,0.3,0.1,0.4,0l3.6-2.1c0.1-0.1,0.1-0.2,0-0.3
					l-4.7-2.7C248.3,282,248.2,282,248.1,282z"/>
				<linearGradient id="SVGID_79_" gradientUnits="userSpaceOnUse" x1="202.6497" y1="215.5616" x2="262.9717" y2="298.4301">
					<stop  offset="0" style="stop-color:#80BDFF"/>
					<stop  offset="1" style="stop-color:#D6EAFF"/>
				</linearGradient>
				<path class="st84" d="M256.2,291.2c0.1,0.1,0.3,0.1,0.4,0l3.6-2.1c0.1-0.1,0.1-0.2,0-0.3l-4.7-2.7c-0.1-0.1-0.2-0.1-0.4,0
					l-3.7,2.1c-0.1,0.1-0.1,0.2,0,0.3L256.2,291.2z"/>
				<linearGradient id="SVGID_80_" gradientUnits="userSpaceOnUse" x1="209.7608" y1="219.6777" x2="270.0841" y2="302.548">
					<stop  offset="0" style="stop-color:#80BDFF"/>
					<stop  offset="1" style="stop-color:#D6EAFF"/>
				</linearGradient>
				<path class="st85" d="M263.4,295.4c0.1,0.1,0.3,0.1,0.4,0l3.6-2.1c0.1-0.1,0.1-0.2,0-0.3l-4.7-2.7c-0.1-0.1-0.2-0.1-0.4,0
					l-3.7,2.1c-0.1,0.1-0.1,0.2,0,0.3L263.4,295.4z"/>
				<linearGradient id="SVGID_81_" gradientUnits="userSpaceOnUse" x1="216.8742" y1="223.7968" x2="277.1964" y2="306.6656">
					<stop  offset="0" style="stop-color:#80BDFF"/>
					<stop  offset="1" style="stop-color:#D6EAFF"/>
				</linearGradient>
				<path class="st86" d="M270.5,299.5c0.1,0.1,0.3,0.1,0.4,0l3.6-2.1c0.1-0.1,0.1-0.2,0-0.3l-4.7-2.7c-0.1-0.1-0.2-0.1-0.4,0
					l-3.7,2.1c-0.1,0.1-0.1,0.2,0,0.3L270.5,299.5z"/>
				<linearGradient id="SVGID_82_" gradientUnits="userSpaceOnUse" x1="223.985" y1="227.9124" x2="284.3089" y2="310.7835">
					<stop  offset="0" style="stop-color:#80BDFF"/>
					<stop  offset="1" style="stop-color:#D6EAFF"/>
				</linearGradient>
				<path class="st87" d="M277.6,303.6c0.1,0.1,0.3,0.1,0.4,0l3.6-2.1c0.1-0.1,0.1-0.2,0-0.3l-4.7-2.7c-0.1-0.1-0.2-0.1-0.4,0
					l-3.7,2.1c-0.1,0.1-0.1,0.2,0,0.3L277.6,303.6z"/>
				<linearGradient id="SVGID_83_" gradientUnits="userSpaceOnUse" x1="231.0989" y1="232.0321" x2="291.4211" y2="314.9009">
					<stop  offset="0" style="stop-color:#80BDFF"/>
					<stop  offset="1" style="stop-color:#D6EAFF"/>
				</linearGradient>
				<path class="st88" d="M284.7,307.7c0.1,0.1,0.3,0.1,0.4,0l3.6-2.1c0.1-0.1,0.1-0.2,0-0.3l-4.7-2.7c-0.1-0.1-0.2-0.1-0.4,0
					l-3.7,2.1c-0.1,0.1-0.1,0.2,0,0.3L284.7,307.7z"/>
				<linearGradient id="SVGID_84_" gradientUnits="userSpaceOnUse" x1="238.2111" y1="236.1497" x2="298.5335" y2="319.0187">
					<stop  offset="0" style="stop-color:#80BDFF"/>
					<stop  offset="1" style="stop-color:#D6EAFF"/>
				</linearGradient>
				<path class="st89" d="M291.8,311.8c0.1,0.1,0.3,0.1,0.4,0l3.6-2.1c0.1-0.1,0.1-0.2,0-0.3l-4.7-2.7c-0.1-0.1-0.2-0.1-0.4,0
					l-3.7,2.1c-0.1,0.1-0.1,0.2,0,0.3L291.8,311.8z"/>
				<linearGradient id="SVGID_85_" gradientUnits="userSpaceOnUse" x1="245.3235" y1="240.2674" x2="305.6458" y2="323.1363">
					<stop  offset="0" style="stop-color:#80BDFF"/>
					<stop  offset="1" style="stop-color:#D6EAFF"/>
				</linearGradient>
				<path class="st90" d="M298.9,315.9c0.1,0.1,0.3,0.1,0.4,0l3.6-2.1c0.1-0.1,0.1-0.2,0-0.3l-4.7-2.7c-0.1-0.1-0.2-0.1-0.4,0
					l-3.7,2.1c-0.1,0.1-0.1,0.2,0,0.3L298.9,315.9z"/>
				<linearGradient id="SVGID_86_" gradientUnits="userSpaceOnUse" x1="252.4361" y1="244.3854" x2="312.7582" y2="327.254">
					<stop  offset="0" style="stop-color:#80BDFF"/>
					<stop  offset="1" style="stop-color:#D6EAFF"/>
				</linearGradient>
				<path class="st91" d="M306,320.1c0.1,0.1,0.3,0.1,0.4,0l3.6-2.1c0.1-0.1,0.1-0.2,0-0.3l-4.7-2.7c-0.1-0.1-0.2-0.1-0.4,0
					l-3.7,2.1c-0.1,0.1-0.1,0.2,0,0.3L306,320.1z"/>
				<linearGradient id="SVGID_87_" gradientUnits="userSpaceOnUse" x1="259.5482" y1="248.5029" x2="319.8705" y2="331.3716">
					<stop  offset="0" style="stop-color:#80BDFF"/>
					<stop  offset="1" style="stop-color:#D6EAFF"/>
				</linearGradient>
				<path class="st92" d="M313.1,324.2c0.1,0.1,0.3,0.1,0.4,0l3.6-2.1c0.1-0.1,0.1-0.2,0-0.3l-4.7-2.7c-0.1-0.1-0.2-0.1-0.4,0
					l-3.7,2.1c-0.1,0.1-0.1,0.2,0,0.3L313.1,324.2z"/>
				<linearGradient id="SVGID_88_" gradientUnits="userSpaceOnUse" x1="266.6608" y1="252.6208" x2="326.9828" y2="335.4893">
					<stop  offset="0" style="stop-color:#80BDFF"/>
					<stop  offset="1" style="stop-color:#D6EAFF"/>
				</linearGradient>
				<path class="st93" d="M320.3,328.3c0.1,0.1,0.3,0.1,0.4,0l3.6-2.1c0.1-0.1,0.1-0.2,0-0.3l-4.7-2.7c-0.1-0.1-0.2-0.1-0.4,0
					l-3.7,2.1c-0.1,0.1-0.1,0.2,0,0.3L320.3,328.3z"/>
				<linearGradient id="SVGID_89_" gradientUnits="userSpaceOnUse" x1="273.7723" y1="256.7373" x2="334.0952" y2="339.6071">
					<stop  offset="0" style="stop-color:#80BDFF"/>
					<stop  offset="1" style="stop-color:#D6EAFF"/>
				</linearGradient>
				<path class="st94" d="M326.7,327.3c-0.1-0.1-0.2-0.1-0.4,0l-3.7,2.1c-0.1,0.1-0.1,0.2,0,0.3l4.7,2.7c0.1,0.1,0.3,0.1,0.4,0
					l3.6-2.1c0.1-0.1,0.1-0.2,0-0.3L326.7,327.3z"/>
				<linearGradient id="SVGID_90_" gradientUnits="userSpaceOnUse" x1="182.7634" y1="210.7092" x2="243.0856" y2="293.5779">
					<stop  offset="0" style="stop-color:#80BDFF"/>
					<stop  offset="1" style="stop-color:#D6EAFF"/>
				</linearGradient>
				<path class="st95" d="M240.4,284l-4.7-2.7c-0.1-0.1-0.2-0.1-0.4,0l-3.7,2.1c-0.1,0.1-0.1,0.2,0,0.3l4.7,2.7
					c0.1,0.1,0.3,0.1,0.4,0l3.6-2.1C240.5,284.2,240.5,284.1,240.4,284z"/>
				<linearGradient id="SVGID_91_" gradientUnits="userSpaceOnUse" x1="189.8751" y1="214.8261" x2="250.1979" y2="297.6957">
					<stop  offset="0" style="stop-color:#80BDFF"/>
					<stop  offset="1" style="stop-color:#D6EAFF"/>
				</linearGradient>
				<path class="st96" d="M247.5,288.1l-4.7-2.7c-0.1-0.1-0.2-0.1-0.4,0l-3.7,2.1c-0.1,0.1-0.1,0.2,0,0.3l4.7,2.7
					c0.1,0.1,0.3,0.1,0.4,0l3.6-2.1C247.6,288.4,247.6,288.2,247.5,288.1z"/>
				<linearGradient id="SVGID_92_" gradientUnits="userSpaceOnUse" x1="196.988" y1="218.9444" x2="257.3103" y2="301.8133">
					<stop  offset="0" style="stop-color:#80BDFF"/>
					<stop  offset="1" style="stop-color:#D6EAFF"/>
				</linearGradient>
				<path class="st97" d="M254.6,292.2l-4.7-2.7c-0.1-0.1-0.2-0.1-0.4,0l-3.7,2.1c-0.1,0.1-0.1,0.2,0,0.3l4.7,2.7
					c0.1,0.1,0.3,0.1,0.4,0l3.6-2.1C254.7,292.5,254.7,292.3,254.6,292.2z"/>
				<linearGradient id="SVGID_93_" gradientUnits="userSpaceOnUse" x1="-54.7662" y1="-143.8667" x2="314.9338" y2="364.0154">
					<stop  offset="0" style="stop-color:#80BDFF"/>
					<stop  offset="1" style="stop-color:#D6EAFF"/>
				</linearGradient>
				<path class="st98" d="M290.2,312.8l-7.1-4.1c0,0,0,0,0,0l-1.2-0.7l-5.9-3.4c0,0,0,0,0,0l-2.4-1.3l-4.7-2.7c0,0,0,0,0,0l-3.5-2
					l-8.3-4.8c-0.1-0.1-0.2-0.1-0.4,0l-3.7,2.1c-0.1,0.1-0.1,0.2,0,0.3l7.1,4.1c0,0,0,0,0,0l1.2,0.7l5.9,3.4c0,0,0,0,0,0l2.4,1.3
					l4.7,2.7c0,0,0,0,0,0l3.5,2l3.5,2c0,0,0,0,0,0l4.7,2.7c0.1,0.1,0.3,0.1,0.4,0l3.6-2.1C290.3,313.1,290.3,312.9,290.2,312.8z"/>
				<linearGradient id="SVGID_94_" gradientUnits="userSpaceOnUse" x1="239.6616" y1="243.6498" x2="299.9844" y2="326.5194">
					<stop  offset="0" style="stop-color:#80BDFF"/>
					<stop  offset="1" style="stop-color:#D6EAFF"/>
				</linearGradient>
				<path class="st99" d="M297.3,316.9l-4.7-2.7c-0.1-0.1-0.2-0.1-0.4,0l-3.7,2.1c-0.1,0.1-0.1,0.2,0,0.3l4.7,2.7
					c0.1,0.1,0.3,0.1,0.4,0l3.6-2.1C297.4,317.2,297.4,317,297.3,316.9z"/>
				<linearGradient id="SVGID_95_" gradientUnits="userSpaceOnUse" x1="246.7736" y1="247.767" x2="307.0968" y2="330.6372">
					<stop  offset="0" style="stop-color:#80BDFF"/>
					<stop  offset="1" style="stop-color:#D6EAFF"/>
				</linearGradient>
				<path class="st100" d="M304.4,321.1l-4.7-2.7c-0.1-0.1-0.2-0.1-0.4,0l-3.7,2.1c-0.1,0.1-0.1,0.2,0,0.3l4.7,2.7
					c0.1,0.1,0.3,0.1,0.4,0l3.6-2.1C304.5,321.3,304.5,321.1,304.4,321.1z"/>
				<linearGradient id="SVGID_96_" gradientUnits="userSpaceOnUse" x1="253.8866" y1="251.8855" x2="314.2091" y2="334.7548">
					<stop  offset="0" style="stop-color:#80BDFF"/>
					<stop  offset="1" style="stop-color:#D6EAFF"/>
				</linearGradient>
				<path class="st101" d="M311.5,325.2l-4.7-2.7c-0.1-0.1-0.2-0.1-0.4,0l-3.7,2.1c-0.1,0.1-0.1,0.2,0,0.3l4.7,2.7
					c0.1,0.1,0.3,0.1,0.4,0l3.6-2.1C311.6,325.4,311.6,325.2,311.5,325.2z"/>
				<linearGradient id="SVGID_97_" gradientUnits="userSpaceOnUse" x1="260.998" y1="256.0021" x2="321.3215" y2="338.8726">
					<stop  offset="0" style="stop-color:#80BDFF"/>
					<stop  offset="1" style="stop-color:#D6EAFF"/>
				</linearGradient>
				<path class="st102" d="M318.6,329.3l-4.7-2.7c-0.1-0.1-0.2-0.1-0.4,0l-3.7,2.1c-0.1,0.1-0.1,0.2,0,0.3l4.7,2.7
					c0.1,0.1,0.3,0.1,0.4,0l3.6-2.1C318.7,329.5,318.7,329.4,318.6,329.3z"/>
				<linearGradient id="SVGID_98_" gradientUnits="userSpaceOnUse" x1="268.1116" y1="260.1213" x2="328.4338" y2="342.9901">
					<stop  offset="0" style="stop-color:#80BDFF"/>
					<stop  offset="1" style="stop-color:#D6EAFF"/>
				</linearGradient>
				<path class="st103" d="M321,330.7c-0.1-0.1-0.2-0.1-0.4,0l-3.7,2.1c-0.1,0.1-0.1,0.2,0,0.3l4.7,2.7c0.1,0.1,0.3,0.1,0.4,0
					l3.6-2.1c0.1-0.1,0.1-0.2,0-0.3L321,330.7z"/>
			</g>
		</g>
		<g>
			<g>
				<linearGradient id="SVGID_99_" gradientUnits="userSpaceOnUse" x1="254.3887" y1="223.8293" x2="226.8712" y2="161.2551">
					<stop  offset="0" style="stop-color:#38ACA8"/>
					<stop  offset="1" style="stop-color:#60637B"/>
				</linearGradient>
				<path class="st104" d="M207.5,205.7c-2.2-1.2-3.5-3.6-3.5-6.1l-4.2-63.1c0-0.6,4.7-1.9,5-1.9c0.1,0,0.3,0,0.4,0.1L270,172
					c2.9,1.7,4.7,4.7,4.7,8.1v58c0,2.8-6.5,6.5-8.9,5.1L207.5,205.7z"/>
				<linearGradient id="SVGID_100_" gradientUnits="userSpaceOnUse" x1="199.7018" y1="189.6977" x2="270.3378" y2="189.6977">
					<stop  offset="0" style="stop-color:#38ACA8"/>
					<stop  offset="1" style="stop-color:#60637B"/>
				</linearGradient>
				<path class="st105" d="M203.2,207.2c-2.2-1.2-3.5-3.6-3.5-6.1v-64.1c0-0.6,0.6-0.8,0.8-0.8c0.1,0,0.3,0,0.4,0.1l64.8,37.2
					c2.9,1.7,4.7,4.7,4.7,8.1v58c0,2.8-3,4.5-5.4,3.1L203.2,207.2z"/>
			</g>
			<g>
				
					<ellipse transform="matrix(0.8069 -0.5907 0.5907 0.8069 -67.1006 174.2481)" class="st106" cx="232.9" cy="189.7" rx="18.8" ry="35.2"/>
				<g>
					
						<linearGradient id="SVGID_101_" gradientUnits="userSpaceOnUse" x1="231.9277" y1="322.5027" x2="233.3877" y2="325.175" gradientTransform="matrix(1 0.6338 0 1 0 -265.5913)">
						<stop  offset="0" style="stop-color:#80BDFF"/>
						<stop  offset="1" style="stop-color:#D6EAFF"/>
					</linearGradient>
					<path class="st107" d="M232.9,204.3c-0.2-0.1-0.3-0.2-0.5-0.3l-0.1,3.1c0.2,0.1,0.4,0.3,0.6,0.4V204.3z"/>
					
						<linearGradient id="SVGID_102_" gradientUnits="userSpaceOnUse" x1="216.2555" y1="304.3897" x2="217.5683" y2="306.7925" gradientTransform="matrix(1 0.6338 0 1 0 -265.5913)">
						<stop  offset="0" style="stop-color:#80BDFF"/>
						<stop  offset="1" style="stop-color:#D6EAFF"/>
					</linearGradient>
					<path class="st108" d="M218.6,178.3l-3.2-2.5c-0.1,0.3-0.1,0.7-0.2,1.1l3.2,2.3C218.5,178.9,218.6,178.6,218.6,178.3z"/>
					
						<linearGradient id="SVGID_103_" gradientUnits="userSpaceOnUse" x1="219.2882" y1="296.4414" x2="220.8951" y2="299.3827" gradientTransform="matrix(1 0.6338 0 1 0 -265.5913)">
						<stop  offset="0" style="stop-color:#80BDFF"/>
						<stop  offset="1" style="stop-color:#D6EAFF"/>
					</linearGradient>
					<path class="st109" d="M221.7,173.4l-2.5-3.6c-0.2,0.1-0.5,0.3-0.7,0.5l2.6,3.5C221.3,173.7,221.5,173.5,221.7,173.4z"/>
					
						<linearGradient id="SVGID_104_" gradientUnits="userSpaceOnUse" x1="218.1343" y1="298.2184" x2="219.7062" y2="301.0956" gradientTransform="matrix(1 0.6338 0 1 0 -265.5913)">
						<stop  offset="0" style="stop-color:#80BDFF"/>
						<stop  offset="1" style="stop-color:#D6EAFF"/>
					</linearGradient>
					<path class="st110" d="M220.6,174.3l-2.7-3.4c-0.2,0.2-0.4,0.4-0.6,0.6l2.8,3.3C220.3,174.6,220.4,174.4,220.6,174.3z"/>
					
						<linearGradient id="SVGID_105_" gradientUnits="userSpaceOnUse" x1="216.1946" y1="306.6115" x2="217.3708" y2="308.7644" gradientTransform="matrix(1 0.6338 0 1 0 -265.5913)">
						<stop  offset="0" style="stop-color:#80BDFF"/>
						<stop  offset="1" style="stop-color:#D6EAFF"/>
					</linearGradient>
					<path class="st111" d="M218.4,180.5c0-0.2,0-0.3,0-0.5l-3.2-2.1c0,0.2,0,0.4,0,0.6c0,0.2,0,0.4,0,0.6l3.2,1.9
						C218.4,180.9,218.4,180.7,218.4,180.5z"/>
					
						<linearGradient id="SVGID_106_" gradientUnits="userSpaceOnUse" x1="216.6028" y1="302.2292" x2="218.0257" y2="304.8337" gradientTransform="matrix(1 0.6338 0 1 0 -265.5913)">
						<stop  offset="0" style="stop-color:#80BDFF"/>
						<stop  offset="1" style="stop-color:#D6EAFF"/>
					</linearGradient>
					<path class="st112" d="M219,176.7l-3.1-2.9c-0.1,0.3-0.2,0.6-0.3,0.9l3.1,2.7C218.9,177.2,218.9,177,219,176.7z"/>
					
						<linearGradient id="SVGID_107_" gradientUnits="userSpaceOnUse" x1="220.6695" y1="294.8576" x2="222.2831" y2="297.8111" gradientTransform="matrix(1 0.6338 0 1 0 -265.5913)">
						<stop  offset="0" style="stop-color:#80BDFF"/>
						<stop  offset="1" style="stop-color:#D6EAFF"/>
					</linearGradient>
					<path class="st113" d="M223,172.9l-2.2-3.7c-0.3,0.1-0.6,0.2-0.8,0.3l2.3,3.7C222.5,173,222.8,172.9,223,172.9z"/>
					
						<linearGradient id="SVGID_108_" gradientUnits="userSpaceOnUse" x1="230.0291" y1="290.2131" x2="231.6413" y2="293.1639" gradientTransform="matrix(1 0.6338 0 1 0 -265.5913)">
						<stop  offset="0" style="stop-color:#80BDFF"/>
						<stop  offset="1" style="stop-color:#D6EAFF"/>
					</linearGradient>
					<path class="st114" d="M231.5,174.4l-0.3-3.4c-0.4-0.2-0.8-0.4-1.2-0.6l0.5,3.5C230.9,174,231.2,174.2,231.5,174.4z"/>
					
						<linearGradient id="SVGID_109_" gradientUnits="userSpaceOnUse" x1="222.2632" y1="293.4917" x2="223.8562" y2="296.4075" gradientTransform="matrix(1 0.6338 0 1 0 -265.5913)">
						<stop  offset="0" style="stop-color:#80BDFF"/>
						<stop  offset="1" style="stop-color:#D6EAFF"/>
					</linearGradient>
					<path class="st115" d="M224.5,172.6l-1.9-3.8c-0.3,0-0.6,0.1-0.9,0.1l2,3.8C224,172.6,224.2,172.6,224.5,172.6z"/>
					
						<linearGradient id="SVGID_110_" gradientUnits="userSpaceOnUse" x1="227.9699" y1="290.6343" x2="229.5789" y2="293.5792" gradientTransform="matrix(1 0.6338 0 1 0 -265.5913)">
						<stop  offset="0" style="stop-color:#80BDFF"/>
						<stop  offset="1" style="stop-color:#D6EAFF"/>
					</linearGradient>
					<path class="st116" d="M229.6,173.5l-0.7-3.6c-0.4-0.2-0.8-0.3-1.1-0.4l0.9,3.7C229,173.3,229.3,173.4,229.6,173.5z"/>
					
						<linearGradient id="SVGID_111_" gradientUnits="userSpaceOnUse" x1="224.0486" y1="292.3609" x2="225.5947" y2="295.1906" gradientTransform="matrix(1 0.6338 0 1 0 -265.5913)">
						<stop  offset="0" style="stop-color:#80BDFF"/>
						<stop  offset="1" style="stop-color:#D6EAFF"/>
					</linearGradient>
					<path class="st117" d="M226.1,172.6l-1.5-3.8c-0.3,0-0.7-0.1-1-0.1l1.7,3.8C225.5,172.6,225.8,172.6,226.1,172.6z"/>
					
						<linearGradient id="SVGID_112_" gradientUnits="userSpaceOnUse" x1="225.9979" y1="291.349" x2="227.5751" y2="294.2357" gradientTransform="matrix(1 0.6338 0 1 0 -265.5913)">
						<stop  offset="0" style="stop-color:#80BDFF"/>
						<stop  offset="1" style="stop-color:#D6EAFF"/>
					</linearGradient>
					<path class="st118" d="M227.8,172.9l-1.1-3.7c-0.4-0.1-0.7-0.2-1.1-0.2l1.3,3.8C227.2,172.8,227.5,172.8,227.8,172.9z"/>
					
						<linearGradient id="SVGID_113_" gradientUnits="userSpaceOnUse" x1="217.2324" y1="300.1582" x2="218.7435" y2="302.9239" gradientTransform="matrix(1 0.6338 0 1 0 -265.5913)">
						<stop  offset="0" style="stop-color:#80BDFF"/>
						<stop  offset="1" style="stop-color:#D6EAFF"/>
					</linearGradient>
					<path class="st119" d="M219.7,175.4l-2.9-3.2c-0.2,0.3-0.3,0.5-0.4,0.8l3,3C219.4,175.8,219.6,175.6,219.7,175.4z"/>
					
						<linearGradient id="SVGID_114_" gradientUnits="userSpaceOnUse" x1="222.5915" y1="319.543" x2="223.6732" y2="321.5228" gradientTransform="matrix(1 0.6338 0 1 0 -265.5913)">
						<stop  offset="0" style="stop-color:#80BDFF"/>
						<stop  offset="1" style="stop-color:#D6EAFF"/>
					</linearGradient>
					<path class="st120" d="M223.7,195.1l-2,1.2c0.3,0.4,0.6,0.9,0.9,1.3l1.9-1.4C224.2,195.8,224,195.5,223.7,195.1z"/>
					
						<linearGradient id="SVGID_115_" gradientUnits="userSpaceOnUse" x1="224.2628" y1="320.579" x2="225.4923" y2="322.8294" gradientTransform="matrix(1 0.6338 0 1 0 -265.5913)">
						<stop  offset="0" style="stop-color:#80BDFF"/>
						<stop  offset="1" style="stop-color:#D6EAFF"/>
					</linearGradient>
					<path class="st121" d="M225.3,197.2l-1.7,1.6c0.3,0.4,0.7,0.8,1,1.2l1.5-1.9C225.8,197.9,225.5,197.6,225.3,197.2z"/>
					
						<linearGradient id="SVGID_116_" gradientUnits="userSpaceOnUse" x1="228.0195" y1="321.9809" x2="229.479" y2="324.6522" gradientTransform="matrix(1 0.6338 0 1 0 -265.5913)">
						<stop  offset="0" style="stop-color:#80BDFF"/>
						<stop  offset="1" style="stop-color:#D6EAFF"/>
					</linearGradient>
					<path class="st122" d="M227.8,203.4c0.4,0.3,0.7,0.7,1.1,1l0.7-2.7c-0.3-0.3-0.6-0.5-0.9-0.8L227.8,203.4z"/>
					
						<linearGradient id="SVGID_117_" gradientUnits="userSpaceOnUse" x1="226.0828" y1="321.3999" x2="227.4381" y2="323.8805" gradientTransform="matrix(1 0.6338 0 1 0 -265.5913)">
						<stop  offset="0" style="stop-color:#80BDFF"/>
						<stop  offset="1" style="stop-color:#D6EAFF"/>
					</linearGradient>
					<path class="st123" d="M226.9,199.2l-1.3,2.1c0.4,0.4,0.7,0.8,1.1,1.1l1.1-2.3C227.5,199.8,227.2,199.5,226.9,199.2z"/>
					
						<linearGradient id="SVGID_118_" gradientUnits="userSpaceOnUse" x1="230.0399" y1="322.3166" x2="231.5765" y2="325.1289" gradientTransform="matrix(1 0.6338 0 1 0 -265.5913)">
						<stop  offset="0" style="stop-color:#80BDFF"/>
						<stop  offset="1" style="stop-color:#D6EAFF"/>
					</linearGradient>
					<path class="st124" d="M230.1,205.4c0.4,0.3,0.8,0.6,1.1,0.9l0.3-3c-0.3-0.2-0.6-0.5-0.9-0.7L230.1,205.4z"/>
					
						<linearGradient id="SVGID_119_" gradientUnits="userSpaceOnUse" x1="216.4105" y1="308.8455" x2="217.4344" y2="310.7195" gradientTransform="matrix(1 0.6338 0 1 0 -265.5913)">
						<stop  offset="0" style="stop-color:#80BDFF"/>
						<stop  offset="1" style="stop-color:#D6EAFF"/>
					</linearGradient>
					<path class="st125" d="M218.5,182l-3.2-1.7c0,0.4,0.1,0.8,0.2,1.2l3.2,1.5C218.6,182.7,218.5,182.4,218.5,182z"/>
					
						<linearGradient id="SVGID_120_" gradientUnits="userSpaceOnUse" x1="221.0972" y1="318.3051" x2="222.0133" y2="319.9818" gradientTransform="matrix(1 0.6338 0 1 0 -265.5913)">
						<stop  offset="0" style="stop-color:#80BDFF"/>
						<stop  offset="1" style="stop-color:#D6EAFF"/>
					</linearGradient>
					<path class="st126" d="M222.3,193l-2.3,0.7c0.3,0.4,0.5,0.9,0.8,1.3l2.2-0.9C222.8,193.7,222.6,193.3,222.3,193z"/>
					
						<linearGradient id="SVGID_121_" gradientUnits="userSpaceOnUse" x1="218.7253" y1="315.2914" x2="219.2793" y2="316.3054" gradientTransform="matrix(1 0.6338 0 1 0 -265.5913)">
						<stop  offset="0" style="stop-color:#80BDFF"/>
						<stop  offset="1" style="stop-color:#D6EAFF"/>
					</linearGradient>
					<path class="st127" d="M220.1,188.5l-2.8-0.3c0.2,0.5,0.4,0.9,0.6,1.4l2.7,0C220.4,189.2,220.3,188.8,220.1,188.5z"/>
					
						<linearGradient id="SVGID_122_" gradientUnits="userSpaceOnUse" x1="216.9122" y1="311.0638" x2="217.7638" y2="312.6226" gradientTransform="matrix(1 0.6338 0 1 0 -265.5913)">
						<stop  offset="0" style="stop-color:#80BDFF"/>
						<stop  offset="1" style="stop-color:#D6EAFF"/>
					</linearGradient>
					<path class="st128" d="M218.8,184.1l-3.1-1.2c0.1,0.4,0.2,0.9,0.3,1.3l3.1,1C218.9,184.8,218.9,184.4,218.8,184.1z"/>
					
						<linearGradient id="SVGID_123_" gradientUnits="userSpaceOnUse" x1="217.6916" y1="313.227" x2="218.3544" y2="314.4403" gradientTransform="matrix(1 0.6338 0 1 0 -265.5913)">
						<stop  offset="0" style="stop-color:#80BDFF"/>
						<stop  offset="1" style="stop-color:#D6EAFF"/>
					</linearGradient>
					<path class="st129" d="M219.3,186.3l-3-0.8c0.1,0.4,0.3,0.9,0.4,1.3l2.9,0.5C219.6,187,219.5,186.6,219.3,186.3z"/>
					
						<linearGradient id="SVGID_124_" gradientUnits="userSpaceOnUse" x1="219.8056" y1="316.8861" x2="220.5417" y2="318.2334" gradientTransform="matrix(1 0.6338 0 1 0 -265.5913)">
						<stop  offset="0" style="stop-color:#80BDFF"/>
						<stop  offset="1" style="stop-color:#D6EAFF"/>
					</linearGradient>
					<path class="st130" d="M221.1,190.7l-2.6,0.2c0.2,0.5,0.5,0.9,0.7,1.4l2.5-0.5C221.5,191.5,221.3,191.1,221.1,190.7z"/>
					
						<linearGradient id="SVGID_125_" gradientUnits="userSpaceOnUse" x1="231.9476" y1="290.211" x2="233.424" y2="292.9135" gradientTransform="matrix(1 0.6338 0 1 0 -265.5913)">
						<stop  offset="0" style="stop-color:#80BDFF"/>
						<stop  offset="1" style="stop-color:#D6EAFF"/>
					</linearGradient>
					<path class="st131" d="M232.9,175.2l0-3.2c-0.2-0.1-0.4-0.2-0.6-0.4l0.1,3.3C232.6,175,232.8,175.1,232.9,175.2z"/>
					<linearGradient id="SVGID_126_" gradientUnits="userSpaceOnUse" x1="222.5791" y1="189.7452" x2="243.2975" y2="189.7452">
						<stop  offset="0" style="stop-color:#991F3C"/>
						<stop  offset="1" style="stop-color:#E25A71"/>
					</linearGradient>
					<path class="st132" d="M222.6,183.2c0,5.7,4.6,13.3,10.4,16.9c5.7,3.6,10.4,1.9,10.4-3.8c0-5.7-4.6-13.3-10.4-16.9
						C227.2,175.8,222.6,177.5,222.6,183.2z"/>
					<path class="st2" d="M253.6,202.8c0-11.4-9.3-26.5-20.6-33.7v-2.4c-12.7-8-23-4.3-23,8.4l2.4,1.5c0,11.4,9.3,26.5,20.6,33.7
						v2.4c12.7,8,23,4.3,23-8.4L253.6,202.8z M213.4,177.3c0-10.8,8.8-14,19.6-7.2c10.8,6.8,19.6,21.2,19.6,32s-8.8,14-19.6,7.2
						C222.2,202.5,213.4,188.1,213.4,177.3z"/>
					<path class="st2" d="M247.2,198.8c0,7.4-6,9.6-13.4,4.9v3.2c9.1,5.8,16.6,3.1,16.6-6.1c0-9.1-7.4-21.3-16.6-27.1v3.2
						C241.2,181.6,247.2,191.4,247.2,198.8z"/>
				</g>
			</g>
		</g>
		<g>
			<linearGradient id="SVGID_127_" gradientUnits="userSpaceOnUse" x1="308.9529" y1="39.0718" x2="326.5945" y2="99.2421">
				<stop  offset="0" style="stop-color:#C3C3CD"/>
				<stop  offset="0.449" style="stop-color:#FFFFFF"/>
				<stop  offset="0.5704" style="stop-color:#9B9DA4"/>
				<stop  offset="1" style="stop-color:#787B85"/>
			</linearGradient>
			<path class="st133" d="M299.9,136.6l44.7,29.5c1.7,1,7.8-3.3,7.8-5.3V53.2c0-3.3-1.8-6.3-4.6-8l-45.1-25.9
				c-2.2-1.2-8.9,1.4-8.9,3.9l2.3,106.8C296.1,132.7,297.6,135.2,299.9,136.6z"/>
			<linearGradient id="SVGID_128_" gradientUnits="userSpaceOnUse" x1="314.3032" y1="39.4635" x2="324.0872" y2="130.2796">
				<stop  offset="0" style="stop-color:#2D2F4F"/>
				<stop  offset="1" style="stop-color:#16192B"/>
			</linearGradient>
			<path class="st134" d="M296.7,138.7l47,27c1.7,1,3.7-0.2,3.7-2.2V55.9c0-3.3-1.8-6.3-4.6-8l-45.1-25.9c-2.2-1.2-4.9,0.3-4.9,2.8
				v107.2C292.9,134.8,294.3,137.3,296.7,138.7z"/>
			<linearGradient id="SVGID_129_" gradientUnits="userSpaceOnUse" x1="325.6263" y1="138.3689" x2="315.6354" y2="56.9798">
				<stop  offset="0" style="stop-color:#38ACA8"/>
				<stop  offset="1" style="stop-color:#60637B"/>
			</linearGradient>
			<path class="st135" d="M298,136.4c-1.5-0.9-2.4-2.5-2.4-4.2V24.9c0-0.4,0.4-0.6,0.6-0.6c0.1,0,0.2,0,0.3,0.1l45.1,25.9
				c2,1.2,3.3,3.3,3.3,5.6v107.3L298,136.4z"/>
			<path class="st2" d="M342.9,48l-45.1-25.9c-0.9-0.5-1.9-0.5-2.7-0.2c0.8-0.2,1.7-0.1,2.5,0.3l45.1,25.9c2.8,1.6,4.6,4.7,4.6,8
				v107.6c0,1.1-0.7,2-1.6,2.3c1-0.3,1.9-1.2,1.9-2.4V55.9C347.5,52.6,345.7,49.6,342.9,48z"/>
			<g class="st12">
				<linearGradient id="SVGID_130_" gradientUnits="userSpaceOnUse" x1="329.2383" y1="132.8324" x2="308.2343" y2="58.6756">
					<stop  offset="0" style="stop-color:#80BDFF"/>
					<stop  offset="1" style="stop-color:#D6EAFF"/>
				</linearGradient>
				<path class="st136" d="M298.5,56c-0.5-0.3-0.9-0.9-0.9-1.5V38.7c0-0.2,0.1-0.2,0.2-0.2c0,0,0.1,0,0.1,0l16,9.2
					c0.7,0.4,1.2,1.2,1.2,2V64c0,0.7-0.7,1.1-1.3,0.8L298.5,56z"/>
				<linearGradient id="SVGID_131_" gradientUnits="userSpaceOnUse" x1="348.7374" y1="127.3096" x2="327.7334" y2="53.1528">
					<stop  offset="0" style="stop-color:#80BDFF"/>
					<stop  offset="1" style="stop-color:#D6EAFF"/>
				</linearGradient>
				<path class="st137" d="M323.3,69.2c-0.5-0.3-0.9-0.9-0.9-1.5V51.9c0-0.2,0.1-0.2,0.2-0.2c0,0,0.1,0,0.1,0l16,9.2
					c0.7,0.4,1.2,1.2,1.2,2v14.3c0,0.7-0.7,1.1-1.3,0.8L323.3,69.2z"/>
				<linearGradient id="SVGID_132_" gradientUnits="userSpaceOnUse" x1="323.2379" y1="134.5318" x2="302.234" y2="60.375">
					<stop  offset="0" style="stop-color:#80BDFF"/>
					<stop  offset="1" style="stop-color:#D6EAFF"/>
				</linearGradient>
				<path class="st138" d="M298.5,78.9c-0.5-0.3-0.9-0.9-0.9-1.5V61.6c0-0.2,0.1-0.2,0.2-0.2c0,0,0.1,0,0.1,0l16,9.2
					c0.7,0.4,1.2,1.2,1.2,2v14.3c0,0.7-0.7,1.1-1.3,0.8L298.5,78.9z"/>
				<linearGradient id="SVGID_133_" gradientUnits="userSpaceOnUse" x1="342.737" y1="129.009" x2="321.733" y2="54.8522">
					<stop  offset="0" style="stop-color:#80BDFF"/>
					<stop  offset="1" style="stop-color:#D6EAFF"/>
				</linearGradient>
				<path class="st139" d="M323.3,92.1c-0.5-0.3-0.9-0.9-0.9-1.5V74.8c0-0.2,0.1-0.2,0.2-0.2c0,0,0.1,0,0.1,0l16,9.2
					c0.7,0.4,1.2,1.2,1.2,2V100c0,0.7-0.7,1.1-1.3,0.8L323.3,92.1z"/>
				<linearGradient id="SVGID_134_" gradientUnits="userSpaceOnUse" x1="317.2376" y1="136.2314" x2="296.2337" y2="62.0746">
					<stop  offset="0" style="stop-color:#80BDFF"/>
					<stop  offset="1" style="stop-color:#D6EAFF"/>
				</linearGradient>
				<path class="st140" d="M298.5,101.8c-0.5-0.3-0.9-0.9-0.9-1.5V84.5c0-0.2,0.1-0.2,0.2-0.2c0,0,0.1,0,0.1,0l16,9.2
					c0.7,0.4,1.2,1.2,1.2,2v14.3c0,0.7-0.7,1.1-1.3,0.8L298.5,101.8z"/>
				<linearGradient id="SVGID_135_" gradientUnits="userSpaceOnUse" x1="336.7367" y1="130.7085" x2="315.7327" y2="56.5518">
					<stop  offset="0" style="stop-color:#80BDFF"/>
					<stop  offset="1" style="stop-color:#D6EAFF"/>
				</linearGradient>
				<path class="st141" d="M323.3,114.9c-0.5-0.3-0.9-0.9-0.9-1.5V97.6c0-0.2,0.1-0.2,0.2-0.2c0,0,0.1,0,0.1,0l16,9.2
					c0.7,0.4,1.2,1.2,1.2,2v14.3c0,0.7-0.7,1.1-1.3,0.8L323.3,114.9z"/>
				<linearGradient id="SVGID_136_" gradientUnits="userSpaceOnUse" x1="311.2373" y1="137.9309" x2="290.2334" y2="63.7742">
					<stop  offset="0" style="stop-color:#80BDFF"/>
					<stop  offset="1" style="stop-color:#D6EAFF"/>
				</linearGradient>
				<path class="st142" d="M298.5,124.6c-0.5-0.3-0.9-0.9-0.9-1.5v-15.8c0-0.2,0.1-0.2,0.2-0.2c0,0,0.1,0,0.1,0l16,9.2
					c0.7,0.4,1.2,1.2,1.2,2v14.3c0,0.7-0.7,1.1-1.3,0.8L298.5,124.6z"/>
				<linearGradient id="SVGID_137_" gradientUnits="userSpaceOnUse" x1="330.7364" y1="132.4081" x2="309.7324" y2="58.2513">
					<stop  offset="0" style="stop-color:#80BDFF"/>
					<stop  offset="1" style="stop-color:#D6EAFF"/>
				</linearGradient>
				<path class="st143" d="M323.3,137.8c-0.5-0.3-0.9-0.9-0.9-1.5v-15.8c0-0.2,0.1-0.2,0.2-0.2c0,0,0.1,0,0.1,0l16,9.2
					c0.7,0.4,1.2,1.2,1.2,2v14.3c0,0.7-0.7,1.1-1.3,0.8L323.3,137.8z"/>
			</g>
		</g>
		<g>
			<linearGradient id="SVGID_138_" gradientUnits="userSpaceOnUse" x1="288.0725" y1="52.7491" x2="315.5182" y2="102.9832">
				<stop  offset="0" style="stop-color:#991F3C"/>
				<stop  offset="1" style="stop-color:#E25A71"/>
			</linearGradient>
			<path class="st144" d="M274.7,85c-1.7-1-2.7-2.7-2.7-4.6l-3.2-48.1c0-0.5,3.6-1.4,3.8-1.4c0.1,0,0.2,0,0.3,0.1l49.4,28.4
				c2.2,1.3,3.6,3.6,3.6,6.2v44.2c0,2.1-4.9,5-6.8,3.9L274.7,85z"/>
			<linearGradient id="SVGID_139_" gradientUnits="userSpaceOnUse" x1="298.8035" y1="99.6898" x2="292.7433" y2="50.3218">
				<stop  offset="0" style="stop-color:#FF6E9B"/>
				<stop  offset="1" style="stop-color:#E25A71"/>
			</linearGradient>
			<path class="st145" d="M271.4,86.2c-1.7-1-2.7-2.7-2.7-4.6v-49c0-0.5,0.4-0.6,0.6-0.6c0.1,0,0.2,0,0.3,0.1L319,60.4
				c2.2,1.3,3.6,3.6,3.6,6.2v44.2c0,2.1-2.3,3.4-4.1,2.4L271.4,86.2z"/>
			<g>
				<path class="st2" d="M309.8,72.3c-3.2-6.6-8.5-12.9-14.7-16.5c-9.7-5.7-17.6-2.4-17.6,7.3s7.9,22.2,17.6,27.9
					c4.9,2.8,9.3,3.4,12.4,2.1c3.2-1.3,5.1-4.6,5.1-9.4C312.7,80.1,311.6,76.2,309.8,72.3z M304.9,89c-2.5,1-6,0.6-9.8-1.7
					c-7.7-4.5-13.9-14.4-13.9-22.1c0-7.7,6.2-10.3,13.9-5.8c4.9,2.8,9.1,7.8,11.6,13c1.5,3,2.3,6.2,2.3,9
					C309,85.4,307.4,88,304.9,89z"/>
			</g>
		</g>
	</g>
	<g>
		<g>
			<path class="st146" d="M129.7,322.6c0,0-1.1,7.2-0.7,8.2c0.4,0.9,7.8,4.8,10,4.1c2.2-0.7,15.7-16.5,15.6-17.8
				c-0.1-1.3-1.8-4.8-6.4-3.3c-4.5,1.5-6,1.5-6,1.5L129.7,322.6z"/>
			<path class="st147" d="M158.3,333c0,0-1.8,6.3-1.1,7.9c0.6,1.5,6.5,4.4,7.3,4.2c0.8-0.2,19.2-10.1,19.8-11.3
				c0.6-1.2-3.6-5.9-7.7-4.2c-4.1,1.7-11.2,2-11.2,2L158.3,333z"/>
			<path class="st147" d="M125.9,219.5c0,0-3,11.3,0,19.8c3,8.5,2.7,10,2.7,10l3.6,28.2c0,0-4.5,11.8-3.8,25.9
				c0.7,14.1,0,17.9,0,17.9s1.8,3.1,7.9,3.8c6.1,0.8,7.3-2.6,7.3-2.6s-0.9-21.3,4-34.1c4.9-12.8,8.7-63.8,8.7-63.8L125.9,219.5z"/>
			<path class="st148" d="M140.4,231.1c0,0-2.9,7.1,2.3,15.4c5.2,8.4,13.6,12.1,13.6,12.1l1.5,25.7c0,0-1.9,13.3-1.5,25.7
				c0.4,12.3,1.5,21.9,1.5,21.9s0.8,3,5.4,3.4c4.6,0.4,6.2-1.6,6.2-1.6s2.4-28.6,5.4-41.6c3-12.9-2.5-68.9-2.5-68.9
				S157.8,233.5,140.4,231.1z"/>
			
				<linearGradient id="SVGID_140_" gradientUnits="userSpaceOnUse" x1="4408.2627" y1="-216.6037" x2="4435.8042" y2="-216.6037" gradientTransform="matrix(0.9962 8.670000e-02 -8.670000e-02 0.9962 -4271.2534 -50.1374)">
				<stop  offset="0" style="stop-color:#FFD9D9"/>
				<stop  offset="1" style="stop-color:#EFB4B4"/>
			</linearGradient>
			<path class="st149" d="M165.5,99.6c0,0,1.2,10.6,0.9,12.2c-0.4,1.6-1.1,2.1-1.1,2.1s1.7,3.5,1.1,6.5c-0.6,3-3.2,11.5-4.4,12.6
				c-1.2,1.1-7.3,1.3-7.3,1.3l-0.5,6.1l-16.4-7.6c0,0,1.3-13.1,1.2-13.4c-0.1-0.3,12.3-24.8,12.3-24.8L165.5,99.6z"/>
			
				<linearGradient id="SVGID_141_" gradientUnits="userSpaceOnUse" x1="1959.7081" y1="163.3358" x2="1985.7334" y2="163.3358" gradientTransform="matrix(-1 0 0 1 2099.4883 0)">
				<stop  offset="0" style="stop-color:#FFAC06"/>
				<stop  offset="1" style="stop-color:#F25227"/>
			</linearGradient>
			<path class="st150" d="M120.2,135c0,0-4.9,3.6-6,17.4s-0.2,36,3,38c3.1,2,22.6,0.7,22.6,0.7L120.2,135z"/>
			<path class="st151" d="M166.3,152.5c0,0-9.2-6.4-10.4-8s-1-6.8-1-6.8s-15.6-7.2-17.7-7c-2.1,0.2-5.5,2.9-5.5,2.9
				s-12.5-3.3-13.6,5.6c-1.2,8.9,6.2,39.3,8.2,50.6c1.9,11.3-1.7,32.5-1.7,32.5s3.9,11.1,22.4,11.1c18.5,0,25.7-8.4,25.7-8.4
				s-1.4-66.1-2.6-68.6C168.9,153.8,166.3,152.5,166.3,152.5z"/>
			
				<linearGradient id="SVGID_142_" gradientUnits="userSpaceOnUse" x1="1884.6483" y1="176.9387" x2="1945.5951" y2="176.9387" gradientTransform="matrix(-1 0 0 1 2099.4883 0)">
				<stop  offset="0" style="stop-color:#FFAC06"/>
				<stop  offset="1" style="stop-color:#F25227"/>
			</linearGradient>
			<path class="st152" d="M156,154.9c-4.7,7.3-1,15.1,5,24.1c6,9.1,14.9,21.4,18.6,22.2c3.7,0.8,33.9-0.9,33.9-0.9s2-5,1-8.5
				c-1-3.5-1-3.5-1-3.5s-27-1-28.4-2.1c-1.4-1-10.1-28.4-17.9-32.3C159.4,150.1,156,154.9,156,154.9z"/>
			<path class="st147" d="M169.2,99.7c-4.6,4.6-8.8,6.4-8.9,10.9c-0.2,4.4,0.6,7.5-0.7,8.2s-0.1-3.1-3.5-3.2
				c-3.4-0.2-1.9,5.5-1.3,7.2c0.6,1.6-2.2,2.5-8.8,3c-6.6,0.5-7.8-2.7-8.6-4.6c-0.7-1.9-3.7-9.9-2.4-14.2c1.3-4.3,3.6-5.2,3.6-5.2
				s-0.4-7.7,8.3-8.1c8.7-0.4,15.5,2.7,19.4,1.7C170.2,94.2,169.2,99.7,169.2,99.7z"/>
			
				<linearGradient id="SVGID_143_" gradientUnits="userSpaceOnUse" x1="4472.4805" y1="191.5974" x2="4496.521" y2="191.5974" gradientTransform="matrix(1 0 0 1 -4258.4478 0)">
				<stop  offset="0" style="stop-color:#FFD9D9"/>
				<stop  offset="1" style="stop-color:#EFB4B4"/>
			</linearGradient>
			<path class="st153" d="M214.1,190.3c0,0,5.8-4.2,8.3-4.8c2.5-0.6,6.6-1.3,6.6-1.3s0.7,1.7-1.9,2.4c-2.6,0.7,1.9,2.4,8.3,0.6
				s-0.3,5.2-4.9,7.8c-4.6,2.6-16.5,3.8-16.5,3.8S215.7,192.4,214.1,190.3z"/>
		</g>
		<ellipse class="st154" cx="157.6" cy="331.5" rx="44.9" ry="18.4"/>
	</g>
	<g>
		<polygon class="st155" points="421.5,304.2 429.2,295.9 458.3,312.9 458.3,394.6 376.7,348.2 376.7,278.1 		"/>
		
			<linearGradient id="SVGID_144_" gradientUnits="userSpaceOnUse" x1="4309.1616" y1="302.8533" x2="4309.1616" y2="352.8347" gradientTransform="matrix(-1 0 0 1 4722.4185 0)">
			<stop  offset="0" style="stop-color:#E8AF54"/>
			<stop  offset="1" style="stop-color:#D3782D"/>
		</linearGradient>
		<polygon class="st156" points="417.2,306.9 425,298.6 454,315.7 454,397.4 372.5,350.9 372.5,280.9 		"/>
		<polygon class="st157" points="458.3,312.9 454,315.7 454,397.4 458.3,394.6 		"/>
		<polygon class="st158" points="429.2,295.9 425,298.6 454,315.7 458.3,312.9 		"/>
		<polygon class="st158" points="376.7,278.1 372.5,280.9 417.2,306.9 420.4,303.6 		"/>
		<path class="st159" d="M449.6,384.2l0-47.7c0-1.8-0.9-3.4-2.5-4.3l-68.4-39.7c-1.6-0.9-3.7,0.2-3.7,2.1l0,37.2L449.6,384.2z"/>
		<g>
			<path class="st160" d="M412.3,323.6l28,16.3c0.5,0.3,0.9,0.1,0.9-0.4v0c0-0.5-0.4-1.1-0.9-1.4l-28-16.3c-0.5-0.3-0.9-0.1-0.9,0.4
				l0,0C411.4,322.6,411.8,323.3,412.3,323.6z"/>
			<path class="st160" d="M380.9,310.4l59.3,34.5c0.5,0.3,0.9,0.1,0.9-0.4l0,0c0-0.5-0.4-1.1-0.9-1.4l-59.3-34.5
				c-0.5-0.3-0.9-0.1-0.9,0.4l0,0C380,309.4,380.4,310.1,380.9,310.4z"/>
			<path class="st160" d="M380.9,315.4l59.3,34.5c0.5,0.3,0.9,0.1,0.9-0.4l0,0c0-0.5-0.4-1.1-0.9-1.4l-59.3-34.5
				c-0.5-0.3-0.9-0.1-0.9,0.4l0,0C380,314.4,380.4,315.1,380.9,315.4z"/>
			<path class="st160" d="M380.9,320.4l59.3,34.5c0.5,0.3,0.9,0.1,0.9-0.4l0,0c0-0.5-0.4-1.1-0.9-1.4l-59.3-34.5
				c-0.5-0.3-0.9-0.1-0.9,0.4l0,0C380,319.4,380.4,320.1,380.9,320.4z"/>
			<path class="st160" d="M380.9,325.4l59.3,34.5c0.5,0.3,0.9,0.1,0.9-0.4l0,0c0-0.5-0.4-1.1-0.9-1.4l-59.3-34.5
				c-0.5-0.3-0.9-0.1-0.9,0.4l0,0C380,324.5,380.4,325.1,380.9,325.4z"/>
		</g>
		<g>
			
				<linearGradient id="SVGID_145_" gradientUnits="userSpaceOnUse" x1="4321.4658" y1="328.3402" x2="4324.3853" y2="368.0413" gradientTransform="matrix(-1 0 0 1 4722.4185 0)">
				<stop  offset="0" style="stop-color:#EDB55D"/>
				<stop  offset="1" style="stop-color:#DA8839"/>
			</linearGradient>
			<polygon class="st161" points="454,397.4 426.3,348.1 344.7,301.6 372.5,350.9 			"/>
			<polygon class="st157" points="454,397.4 426.3,348.1 428.7,346.4 454,392.2 			"/>
			<polygon class="st158" points="428.7,346.4 426.3,348.1 344.7,301.6 347,300 			"/>
		</g>
	</g>
	<g>
		<g>
			<path class="st154" d="M280.4,413.2l64.2,36.7c1.7,1,3.7,1,5.4,0l49.2-28.2c1.6-0.9,1.6-3.2,0-4.1l-64-36.5
				c-1.5-0.9-3.3-0.9-4.8,0l-50,28.7C279,410.5,279,412.4,280.4,413.2z"/>
			<linearGradient id="SVGID_146_" gradientUnits="userSpaceOnUse" x1="302.4796" y1="402.842" x2="404.4711" y2="403.1987">
				<stop  offset="0" style="stop-color:#0B0B3A"/>
				<stop  offset="1" style="stop-color:#1F309E"/>
			</linearGradient>
			<path class="st162" d="M400.4,400.4h-5.6l-59.6-34c-1.5-0.9-3.3-0.9-4.8,0l-46,26.4h-5v8.5l0,0c0.1,0.6,0.4,1.2,1,1.5l64.2,36.7
				c1.7,1,3.7,1,5.4,0l49.2-28.2c0.9-0.5,1.3-1.5,1.2-2.4l0,0V400.4z"/>
			<linearGradient id="SVGID_147_" gradientUnits="userSpaceOnUse" x1="306.3375" y1="398.6627" x2="381.578" y2="407.4544">
				<stop  offset="0" style="stop-color:#C3C3CD"/>
				<stop  offset="0.449" style="stop-color:#FFFFFF"/>
				<stop  offset="0.5704" style="stop-color:#9B9DA4"/>
				<stop  offset="1" style="stop-color:#787B85"/>
			</linearGradient>
			<path class="st163" d="M400.4,400h-5.6l-59.6-34c-1.5-0.9-3.3-0.9-4.8,0l-46,26.4h-5v8.5l0,0c0.1,0.6,0.4,1.2,1,1.5l64.2,36.7
				c1.7,1,3.7,1,5.4,0l49.2-28.2c0.9-0.5,1.3-1.5,1.2-2.4l0,0V400z"/>
			<linearGradient id="SVGID_148_" gradientUnits="userSpaceOnUse" x1="363.4322" y1="416.7617" x2="301.1478" y2="362.2945">
				<stop  offset="0" style="stop-color:#BABBBB"/>
				<stop  offset="1" style="stop-color:#F4F4F4"/>
			</linearGradient>
			<path class="st164" d="M280.4,394l64.2,36.7c1.7,1,3.7,1,5.4,0l49.2-28.2c1.6-0.9,1.6-3.2,0-4.1l-64-36.5c-1.5-0.9-3.3-0.9-4.8,0
				l-50,28.7C279,391.2,279,393.2,280.4,394z"/>
			<path class="st2" d="M399.2,401.8L350,430.1c-1.7,1-3.7,1-5.4,0l-64.2-36.7c-0.6-0.3-0.9-0.9-1-1.5c-0.1,0.8,0.2,1.6,1,2
				l64.2,36.7c1.7,1,3.7,1,5.4,0l49.2-28.2c0.9-0.5,1.3-1.4,1.2-2.3C400.3,400.8,399.9,401.4,399.2,401.8z"/>
		</g>
		<g>
			<g>
				<linearGradient id="SVGID_149_" gradientUnits="userSpaceOnUse" x1="308.23" y1="369.7312" x2="325.9265" y2="369.7931">
					<stop  offset="0" style="stop-color:#FF91B3"/>
					<stop  offset="1" style="stop-color:#FFD1DF"/>
				</linearGradient>
				<polygon class="st165" points="304.2,369.9 314.9,363.7 325.2,369.9 314.7,375.8 				"/>
				<linearGradient id="SVGID_150_" gradientUnits="userSpaceOnUse" x1="314.4298" y1="394.245" x2="325.4287" y2="366.6576">
					<stop  offset="0" style="stop-color:#991F3C"/>
					<stop  offset="1" style="stop-color:#E25A71"/>
				</linearGradient>
				<polygon class="st166" points="325.2,369.9 325.2,384.9 314.7,390.8 314.7,375.8 				"/>
				<linearGradient id="SVGID_151_" gradientUnits="userSpaceOnUse" x1="310.4036" y1="366.6754" x2="308.4202" y2="395.525">
					<stop  offset="0" style="stop-color:#FF6E9B"/>
					<stop  offset="1" style="stop-color:#E25A71"/>
				</linearGradient>
				<polygon class="st167" points="304.2,369.9 314.7,375.8 314.7,390.8 304.2,384.9 				"/>
			</g>
			<g>
				<linearGradient id="SVGID_152_" gradientUnits="userSpaceOnUse" x1="323.9919" y1="371.0028" x2="341.6884" y2="371.0647">
					<stop  offset="0" style="stop-color:#FF91B3"/>
					<stop  offset="1" style="stop-color:#FFD1DF"/>
				</linearGradient>
				<polygon class="st168" points="320,371.1 330.7,365 341,371.1 330.5,377 				"/>
				<linearGradient id="SVGID_153_" gradientUnits="userSpaceOnUse" x1="329.8264" y1="400.3835" x2="340.8253" y2="372.7962">
					<stop  offset="0" style="stop-color:#991F3C"/>
					<stop  offset="1" style="stop-color:#E25A71"/>
				</linearGradient>
				<polygon class="st169" points="341,371.1 341,394.1 330.5,400 330.5,377 				"/>
				<linearGradient id="SVGID_154_" gradientUnits="userSpaceOnUse" x1="326.4487" y1="367.7786" x2="324.4653" y2="396.6279">
					<stop  offset="0" style="stop-color:#FF6E9B"/>
					<stop  offset="1" style="stop-color:#E25A71"/>
				</linearGradient>
				<polygon class="st170" points="320,371.1 330.5,377 330.5,400 320,394.1 				"/>
			</g>
			<g>
				<linearGradient id="SVGID_155_" gradientUnits="userSpaceOnUse" x1="339.7538" y1="364.9958" x2="357.4504" y2="365.0577">
					<stop  offset="0" style="stop-color:#FF91B3"/>
					<stop  offset="1" style="stop-color:#FFD1DF"/>
				</linearGradient>
				<polygon class="st171" points="335.7,365.1 346.4,359 356.7,365.1 346.2,371 				"/>
				<linearGradient id="SVGID_156_" gradientUnits="userSpaceOnUse" x1="343.9711" y1="406.0229" x2="354.9699" y2="378.4356">
					<stop  offset="0" style="stop-color:#991F3C"/>
					<stop  offset="1" style="stop-color:#E25A71"/>
				</linearGradient>
				<polygon class="st172" points="356.7,365.1 356.7,403.3 346.2,409.2 346.2,371 				"/>
				<linearGradient id="SVGID_157_" gradientUnits="userSpaceOnUse" x1="342.2448" y1="368.8646" x2="340.2614" y2="397.7141">
					<stop  offset="0" style="stop-color:#FF6E9B"/>
					<stop  offset="1" style="stop-color:#E25A71"/>
				</linearGradient>
				<polygon class="st173" points="335.7,365.1 346.2,371 346.2,409.2 335.7,403.3 				"/>
			</g>
			<g>
				<linearGradient id="SVGID_158_" gradientUnits="userSpaceOnUse" x1="355.5158" y1="384.2878" x2="373.2123" y2="384.3497">
					<stop  offset="0" style="stop-color:#FF91B3"/>
					<stop  offset="1" style="stop-color:#FFD1DF"/>
				</linearGradient>
				<polygon class="st174" points="351.5,384.4 362.2,378.3 372.5,384.4 362,390.3 				"/>
				<linearGradient id="SVGID_159_" gradientUnits="userSpaceOnUse" x1="362.4673" y1="413.3972" x2="373.4662" y2="385.8099">
					<stop  offset="0" style="stop-color:#991F3C"/>
					<stop  offset="1" style="stop-color:#E25A71"/>
				</linearGradient>
				<polygon class="st175" points="372.5,384.4 372.5,412.4 362,418.4 362,390.3 				"/>
				<linearGradient id="SVGID_160_" gradientUnits="userSpaceOnUse" x1="356.7497" y1="393.1958" x2="356.7497" y2="416.8597">
					<stop  offset="0" style="stop-color:#FF6E9B"/>
					<stop  offset="1" style="stop-color:#E25A71"/>
				</linearGradient>
				<polygon class="st176" points="351.5,384.4 362,390.3 362,418.4 351.5,412.4 				"/>
			</g>
		</g>
	</g>
	<g>
		<linearGradient id="SVGID_161_" gradientUnits="userSpaceOnUse" x1="441.7984" y1="271.3325" x2="403.0432" y2="225.8512">
			<stop  offset="0" style="stop-color:#AF4E0C"/>
			<stop  offset="1" style="stop-color:#F25227"/>
		</linearGradient>
		<path class="st177" d="M396.2,258.3c-1.6-0.9-2.7-2.7-2.7-4.6l-3.2-47.7c0-0.5,3.6-1.4,3.8-1.4c0.1,0,0.2,0,0.3,0.1l49,28.1
			c2.2,1.3,3.5,3.6,3.5,6.1v43.8c0,2.1-4.9,4.9-6.7,3.9L396.2,258.3z"/>
		<linearGradient id="SVGID_162_" gradientUnits="userSpaceOnUse" x1="390.3384" y1="210.4578" x2="439.9835" y2="279">
			<stop  offset="0" style="stop-color:#FFAC06"/>
			<stop  offset="1" style="stop-color:#F25227"/>
		</linearGradient>
		<path class="st178" d="M392.9,259.5c-1.6-0.9-2.7-2.7-2.7-4.6v-48.5c0-0.5,0.4-0.6,0.6-0.6c0.1,0,0.2,0,0.3,0.1l49,28.1
			c2.2,1.3,3.5,3.6,3.5,6.1v43.8c0,2.1-2.3,3.4-4.1,2.4L392.9,259.5z"/>
		<g class="st26">
			<path class="st2" d="M401.8,226.2c-1-0.6-1.7-1.7-1.7-2.9v-1.3c0-0.3,0.3-0.4,0.4-0.4c0.1,0,0.1,0,0.2,0.1l30.8,17.7
				c1.4,0.8,2.2,2.3,2.2,3.8v-1.7c0,1.3-1.4,2.1-2.6,1.5L401.8,226.2z"/>
			<path class="st2" d="M401.8,235.4c-1-0.6-1.7-1.7-1.7-2.9v-1.3c0-0.3,0.3-0.4,0.4-0.4c0.1,0,0.1,0,0.2,0.1l30.8,17.7
				c1.4,0.8,2.2,2.3,2.2,3.8v-1.7c0,1.3-1.4,2.1-2.6,1.5L401.8,235.4z"/>
			<path class="st2" d="M401.8,244.6c-1-0.6-1.7-1.7-1.7-2.9v-1.3c0-0.3,0.3-0.4,0.4-0.4c0.1,0,0.1,0,0.2,0.1l30.8,17.7
				c1.4,0.8,2.2,2.3,2.2,3.8V260c0,1.3-1.4,2.1-2.6,1.5L401.8,244.6z"/>
			<path class="st2" d="M401.8,253.8c-1-0.6-1.7-1.7-1.7-2.9v-1.3c0-0.3,0.3-0.4,0.4-0.4c0.1,0,0.1,0,0.2,0.1l16.5,9.8
				c1.4,0.8,2.2,2.3,2.2,3.8v-1.7c0,1.3-1.4,2.1-2.6,1.5L401.8,253.8z"/>
		</g>
	</g>
</g>
</svg>
