<?xml version="1.0" encoding="utf-8"?>
<!-- Generator: Adobe Illustrator 22.1.0, SVG Export Plug-In . SVG Version: 6.00 Build 0)  -->
<svg version="1.1" id="Layer_1" xmlns="http://www.w3.org/2000/svg" xmlns:xlink="http://www.w3.org/1999/xlink" x="0px" y="0px"
	 viewBox="0 0 22 25" enable-background="new 0 0 22 25" xml:space="preserve">
<path fill="#FFFFFF" d="M20.7,14.1c-0.2-0.1-0.5-0.1-0.7-0.2c1.1,3.3,0.9,6.3-0.8,7.5c-2,1.5-5.5,0.2-8.8-2.8
	c-0.2-0.2-0.4-0.4-0.6-0.6c-0.8-0.8-1.6-1.7-2.3-2.8c-0.3-0.5-0.7-1-1-1.4c-0.6-1-1.1-2-1.6-3c-0.2-0.6-0.4-1.2-0.6-1.7
	C4.1,8.6,4,8.3,4,8C3.4,5.3,3.7,3.1,5.2,2C7.9,0.1,13.1,2.9,17,8.2c0.5,0.7,2.5,4.9,3,5.6C20.2,13.9,20.4,14,20.7,14.1
	c-0.5-1-2.5-5.4-3.2-6.4C13,1.5,6.4-1.5,2.9,1.1C1.4,2.1,0.7,3.9,0.6,6c0,0.2,0,0.5,0,0.8c0,1.5,0.4,3.3,1,5c0.4,1,0.8,2,1.4,3
	c0.4,0.8,0.9,1.5,1.5,2.3c1.4,2,3.1,3.6,4.8,4.9c0.3,0.2,0.5,0.4,0.8,0.6c3.4,2.2,6.8,2.8,9,1.2C21.5,21.9,21.9,18.2,20.7,14.1"/>
</svg>
