<?xml version="1.0" encoding="utf-8"?>
<!-- Generator: Adobe Illustrator 22.1.0, SVG Export Plug-In . SVG Version: 6.00 Build 0)  -->
<svg version="1.1" id="Layer_1" xmlns="http://www.w3.org/2000/svg" xmlns:xlink="http://www.w3.org/1999/xlink" x="0px" y="0px"
	 viewBox="0 0 150 150" enable-background="new 0 0 150 150" xml:space="preserve">
<g>
	<path fill="#FFCE00" d="M150,75c0,41.4-33.6,75-75,75S0,116.4,0,75S33.6,0,75,0S150,33.6,150,75L150,75z M150,75"/>
	<path fill="#FFA300" d="M149.6,82.8l-33.9-33.9L36.6,126l22.2,22.2C64,149.4,69.4,150,75,150C113.8,150,145.7,120.6,149.6,82.8
		L149.6,82.8z M149.6,82.8"/>
	<path fill="#A260E5" d="M88.3,21.5H42.3c-4.4,0-7.9,3.6-7.9,7.9v91c0,4.4,3.6,7.9,7.9,7.9h65.5c4.4,0,7.9-3.6,7.9-7.9V48.9
		l-15.2-11.5L88.3,21.5z M88.3,21.5"/>
	<path fill="#7A3EB5" d="M88.3,21.5H75v106.9h32.7c4.4,0,7.9-3.6,7.9-7.9V48.9l-15.4-11.3L88.3,21.5z M88.3,21.5"/>
	<path fill="#A260E5" d="M88.3,41c0,4.4,3.6,7.9,7.9,7.9h19.4L88.3,21.5V41z M88.3,41"/>
	<rect x="50.4" y="89" fill="#FFFFFF" width="7.8" height="8.8"/>
	<rect x="62.6" y="89" fill="#FFFFFF" width="12.4" height="8.8"/>
	<rect x="75" y="89" fill="#FFFFFF" width="24.6" height="8.8"/>
	<rect x="50.4" y="105.6" fill="#FFFFFF" width="7.8" height="8.8"/>
	<rect x="62.6" y="105.6" fill="#FFFFFF" width="12.4" height="8.8"/>
	<rect x="75" y="105.6" fill="#FFFFFF" width="24.6" height="8.8"/>
	<rect x="50.4" y="72.4" fill="#FFFFFF" width="7.8" height="8.8"/>
	<rect x="62.6" y="72.4" fill="#FFFFFF" width="37" height="8.8"/>
	<rect x="75" y="89" fill="#E9EDF5" width="24.6" height="8.8"/>
	<rect x="75" y="105.6" fill="#E9EDF5" width="24.6" height="8.8"/>
	<rect x="75" y="72.4" fill="#E9EDF5" width="24.6" height="8.8"/>
</g>
</svg>
